<svg width="393" height="393" viewBox="0 0 393 393" fill="none" xmlns="http://www.w3.org/2000/svg">
<path d="M20 0V392.092" stroke="#000401" stroke-width="0.5"/>
<path d="M64 0V392.092" stroke="#000401" stroke-width="0.5"/>
<path d="M108 0V392.092" stroke="#000401" stroke-width="0.5"/>
<path d="M152 0V392.092" stroke="#000401" stroke-width="0.5"/>
<path d="M196 0V392.092" stroke="#000401" stroke-width="0.5"/>
<path d="M240 0V392.092" stroke="#000401" stroke-width="0.5"/>
<path d="M284 0V392.092" stroke="#000401" stroke-width="0.5"/>
<path d="M328 0V392.092" stroke="#000401" stroke-width="0.5"/>
<path d="M372 0V392.092" stroke="#000401" stroke-width="0.5"/>
<path d="M0 42.1133L393 42.1133" stroke="#000401" stroke-width="0.5"/>
<path d="M0 86.1133L393 86.1133" stroke="#000401" stroke-width="0.5"/>
<path d="M0 130.113L393 130.113" stroke="#000401" stroke-width="0.5"/>
<path d="M0 174.113L393 174.113" stroke="#000401" stroke-width="0.5"/>
<path d="M0 218.113L393 218.113" stroke="#000401" stroke-width="0.5"/>
<path d="M0 262.113L393 262.113" stroke="#000401" stroke-width="0.5"/>
<path d="M0 306.113L393 306.113" stroke="#000401" stroke-width="0.5"/>
<path d="M0 350.113L393 350.113" stroke="#000401" stroke-width="0.5"/>
</svg>
