<svg width="22" height="22" viewBox="0 0 22 22" fill="none" xmlns="http://www.w3.org/2000/svg">
<path d="M14.2083 12.0545H12.2192C10.5875 12.0545 9.25834 10.7345 9.25834 9.09366V7.10449C9.25834 6.72866 8.95584 6.41699 8.57084 6.41699H5.66501C3.54751 6.41699 1.83334 7.79199 1.83334 10.2487V16.3353C1.83334 18.792 3.54751 20.167 5.66501 20.167H11.0642C13.1817 20.167 14.8958 18.792 14.8958 16.3353V12.742C14.8958 12.357 14.5842 12.0545 14.2083 12.0545Z" fill="white"/>
<path d="M16.335 1.83301H14.5292H13.53H10.9358C8.86418 1.83301 7.18668 3.15301 7.11334 5.50884C7.16834 5.50884 7.21418 5.49967 7.26918 5.49967H9.86334H10.8625H12.6683C14.7858 5.49967 16.5 6.87467 16.5 9.33134V11.1372V13.6213V15.4272C16.5 15.4822 16.4908 15.528 16.4908 15.5738C18.535 15.5097 20.1667 14.153 20.1667 11.7605V9.95467V7.47051V5.66467C20.1667 3.20801 18.4525 1.83301 16.335 1.83301Z" fill="white"/>
<path d="M10.9817 6.55443C10.6975 6.27026 10.2117 6.46276 10.2117 6.85693V9.25859C10.2117 10.2669 11.0642 11.0919 12.1092 11.0919C12.76 11.1011 13.6675 11.1011 14.4467 11.1011C14.8408 11.1011 15.0425 10.6428 14.7675 10.3678C13.7683 9.36859 11.99 7.58109 10.9817 6.55443Z" fill="white"/>
</svg>
