<svg width="30" height="30" viewBox="0 0 30 30" fill="none" xmlns="http://www.w3.org/2000/svg">
<rect width="30" height="30" rx="1" fill="white"/>
<path d="M18.318 7.97485L16.5 9.79285L15.854 9.14585C15.7601 9.05196 15.6328 8.99922 15.5 8.99922C15.3672 8.99922 15.2399 9.05196 15.146 9.14585C15.0521 9.23974 14.9994 9.36708 14.9994 9.49985C14.9994 9.63263 15.0521 9.75997 15.146 9.85385L15.793 10.4999L8.31802 17.9749C7.89878 18.3917 7.56641 18.8876 7.34017 19.4338C7.11393 19.98 6.99831 20.5656 7.00002 21.1569V22.9999C7.00002 23.2651 7.10538 23.5194 7.29291 23.707C7.48045 23.8945 7.7348 23.9999 8.00002 23.9999H9.84302C11.0358 23.9965 12.1792 23.5229 13.025 22.6819L20.5 15.2069L21.146 15.8539C21.2399 15.9477 21.3672 16.0005 21.5 16.0005C21.6328 16.0005 21.7601 15.9477 21.854 15.8539C21.9479 15.76 22.0006 15.6326 22.0006 15.4999C22.0006 15.3671 21.9479 15.2397 21.854 15.1459L21.207 14.4999L23.025 12.6819C23.6492 12.0577 23.9999 11.2111 23.9999 10.3284C23.9999 9.44562 23.6492 8.59904 23.025 7.97485C22.4008 7.35066 21.5543 7 20.6715 7C19.7888 7 18.9422 7.35066 18.318 7.97485ZM12.318 21.9749C11.6599 22.6286 10.7707 22.9969 9.84302 22.9999H8.00002V21.1569C7.99872 20.697 8.08865 20.2415 8.26459 19.8167C8.44054 19.3918 8.699 19.0061 9.02502 18.6819L16.5 11.2069L19.793 14.4999L12.318 21.9749ZM22.318 11.9749L20.5 13.7929L17.207 10.4999L19.025 8.68185C19.4647 8.25997 20.0522 8.02721 20.6616 8.03351C21.2709 8.03981 21.8535 8.28466 22.2843 8.71553C22.7152 9.14641 22.9601 9.729 22.9664 10.3383C22.9727 10.9476 22.7399 11.5352 22.318 11.9749Z" fill="black"/>
</svg>
