<svg width="22" height="22" viewBox="0 0 22 22" fill="none" xmlns="http://www.w3.org/2000/svg">
<path d="M19.25 20.167H2.75C2.37417 20.167 2.0625 19.8553 2.0625 19.4795C2.0625 19.1037 2.37417 18.792 2.75 18.792H19.25C19.6258 18.792 19.9375 19.1037 19.9375 19.4795C19.9375 19.8553 19.6258 20.167 19.25 20.167Z" fill="white"/>
<path d="M17.435 3.18986C15.6567 1.41153 13.915 1.36569 12.0909 3.18986L10.9817 4.29903C10.89 4.39069 10.8534 4.53736 10.89 4.66569C11.5867 7.09486 13.53 9.03819 15.9592 9.73486C15.9959 9.74403 16.0325 9.75319 16.0692 9.75319C16.17 9.75319 16.2617 9.71653 16.335 9.64319L17.435 8.53403C18.3425 7.63569 18.7825 6.76486 18.7825 5.88486C18.7917 4.97736 18.3517 4.09736 17.435 3.18986Z" fill="white"/>
<path d="M14.3092 10.5692C14.0434 10.4409 13.7867 10.3126 13.5392 10.1659C13.3375 10.0467 13.145 9.9184 12.9525 9.7809C12.7967 9.68006 12.6134 9.5334 12.4392 9.38673C12.4209 9.37756 12.3567 9.32256 12.2834 9.24923C11.9809 8.99256 11.6417 8.66256 11.3392 8.2959C11.3117 8.27757 11.2659 8.2134 11.2017 8.1309C11.11 8.0209 10.9542 7.83756 10.8167 7.62673C10.7067 7.48923 10.5784 7.28756 10.4592 7.0859C10.3125 6.8384 10.1842 6.5909 10.0559 6.33423C10.0457 6.31255 10.0358 6.29093 10.026 6.26936C9.87538 5.93742 9.44126 5.83967 9.1835 6.09743L3.97836 11.3026C3.85919 11.4217 3.74919 11.6509 3.72169 11.8067L3.22669 15.3176C3.13503 15.9409 3.30919 16.5276 3.69419 16.9217C4.02419 17.2426 4.48253 17.4167 4.97753 17.4167C5.08753 17.4167 5.19753 17.4076 5.30753 17.3892L8.82753 16.8942C8.99253 16.8667 9.22169 16.7567 9.33169 16.6376L14.5297 11.4396C14.7892 11.18 14.6915 10.734 14.3544 10.5888C14.3394 10.5823 14.3243 10.5758 14.3092 10.5692Z" fill="white"/>
</svg>
