<svg width="41" height="22" viewBox="0 0 41 22" fill="none" xmlns="http://www.w3.org/2000/svg">
<path d="M39.9126 8.25611C39.9289 8.13928 39.9359 8.03648 39.9359 7.93368C39.9359 7.79583 39.9243 7.65797 39.9032 7.52713C39.9243 7.39629 39.9359 7.25844 39.9359 7.12059C39.9359 6.72807 39.8518 6.37059 39.6883 6.05283L39.9313 4.06919C39.9523 3.89162 39.9406 3.71171 39.8962 3.53882L39.9313 3.25611C39.9803 2.8519 39.8542 2.44302 39.5831 2.13695C39.3121 1.83087 38.9219 1.65564 38.5131 1.65564H36.0341C35.9523 1.65564 35.8705 1.66265 35.7841 1.679C35.6976 1.66265 35.6135 1.65564 35.5341 1.65564H33.0551C32.8822 1.65564 32.714 1.68601 32.5504 1.7491C32.3495 1.64629 32.1275 1.59255 31.9032 1.59255H29.513C29.2093 1.59255 28.9126 1.69068 28.6696 1.86825C28.1439 1.63928 27.5224 1.52246 26.8191 1.52246H26.242C25.2187 1.52246 24.3799 1.76311 23.7467 2.23741C23.1159 1.76311 22.2771 1.52246 21.2537 1.52246H20.6766C19.8986 1.52246 19.2187 1.66498 18.6579 1.94769C18.5668 1.89629 18.478 1.85891 18.3916 1.83321L18.1953 1.7748C17.978 1.70704 17.6953 1.6533 17.2817 1.59723C16.9032 1.54816 16.5014 1.52246 16.0855 1.52246C14.8705 1.52246 13.8986 1.84723 13.2 2.48741C12.9102 2.75143 12.6766 3.06452 12.499 3.42667V3.02012C12.499 2.23274 11.8588 1.59255 11.0715 1.59255H7.18127C6.88455 1.59255 6.5995 1.68368 6.35885 1.85424C5.84716 1.67667 5.23969 1.59255 4.50137 1.59255H1.95931C1.17193 1.59255 0.531744 2.23274 0.531744 3.02012V8.19536C0.321464 8.45003 0.204636 8.77012 0.204636 9.1019V13.408C0.204636 14.1954 0.844826 14.8355 1.63221 14.8355H2.35884V15.5622C2.35884 16.3496 2.99903 16.9897 3.78642 16.9897H4.51305V17.908C4.51305 18.6954 5.15324 19.3355 5.94062 19.3355H6.66725V20.0552C6.66725 20.8426 7.30744 21.4827 8.09483 21.4827H14.8168C15.6042 21.4827 16.2444 20.8426 16.2444 20.0552V19.3355H16.971C17.7584 19.3355 18.3986 18.6954 18.3986 17.908V16.9897H19.1252C19.5411 16.9897 19.9313 16.8098 20.2023 16.4991C20.471 16.8075 20.8635 16.9897 21.2794 16.9897H22.006V17.908C22.006 18.6954 22.6462 19.3355 23.4336 19.3355H24.1602V20.0552C24.1602 20.8426 24.8004 21.4827 25.5878 21.4827H32.3098C33.0972 21.4827 33.7373 20.8426 33.7373 20.0552V19.3355H34.464C35.2514 19.3355 35.8916 18.6954 35.8916 17.908V16.9897H36.6182C37.4056 16.9897 38.0458 16.3496 38.0458 15.5622V14.8355H38.7724C39.5598 14.8355 40.2 14.1954 40.2 13.408V9.1019C40.1906 8.79583 40.0948 8.50377 39.9126 8.25611Z" fill="black"/>
<path d="M39.7887 7.2843C39.8051 7.17215 39.8168 7.05766 39.8168 6.92916C39.8168 6.78897 39.8051 6.65346 39.7817 6.52262C39.8051 6.39178 39.8168 6.25626 39.8168 6.11607C39.8168 5.67916 39.7093 5.33336 39.5645 5.06935L39.8121 3.05065C39.8331 2.87776 39.8191 2.70486 39.7747 2.54131L39.8121 2.23757C39.8588 1.86607 39.742 1.48991 39.492 1.20953C39.2444 0.929158 38.8869 0.767943 38.5107 0.767943H36.0341C35.95 0.767943 35.8658 0.777289 35.7841 0.793644C35.7023 0.777289 35.6182 0.767943 35.5341 0.767943H33.0551C32.8775 0.767943 32.7023 0.805327 32.5434 0.873084C32.3542 0.765608 32.1345 0.70486 31.9032 0.70486H29.513C29.2 0.70486 28.9126 0.814673 28.6859 0.999253C28.1649 0.758599 27.5411 0.634766 26.8191 0.634766H26.242C25.2023 0.634766 24.3659 0.887103 23.7467 1.38009C23.1299 0.884766 22.2934 0.634766 21.256 0.634766H20.6789C19.8845 0.634766 19.2093 0.784298 18.6579 1.07635C18.5645 1.02028 18.4687 0.973552 18.3612 0.940842L18.1649 0.88243C17.9523 0.81701 17.6766 0.76327 17.2701 0.709532C16.8986 0.660466 16.5014 0.637103 16.0902 0.637103C14.9056 0.637103 13.9593 0.950186 13.2817 1.56935C12.8565 1.95953 12.5574 2.45486 12.3845 3.05065V2.01561C12.3845 1.29131 11.7981 0.70486 11.0738 0.70486H7.18362C6.87988 0.70486 6.60184 0.810001 6.37988 0.982898C5.8752 0.798318 5.25605 0.70486 4.50371 0.70486H1.96165C1.23735 0.70486 0.6509 1.29131 0.6509 2.01561V7.23523C0.447629 7.46654 0.323799 7.76794 0.323799 8.09738V12.4035C0.323799 13.1278 0.910251 13.7142 1.63455 13.7142H2.478V14.5577C2.478 15.282 3.06446 15.8684 3.78876 15.8684H4.63221V16.9035C4.63221 17.6278 5.21866 18.2142 5.94295 18.2142H6.78642V19.0507C6.78642 19.775 7.37286 20.3614 8.09716 20.3614H14.8191C15.5434 20.3614 16.1299 19.775 16.1299 19.0507V18.2142H16.9733C17.6976 18.2142 18.2841 17.6278 18.2841 16.9035V15.8684H19.1275C19.5738 15.8684 19.9663 15.6465 20.2046 15.3053C20.4406 15.6465 20.8355 15.8684 21.2817 15.8684H22.1252V16.9035C22.1252 17.6278 22.7117 18.2142 23.4359 18.2142H24.2794V19.0507C24.2794 19.775 24.8659 20.3614 25.5902 20.3614H32.3121C33.0364 20.3614 33.6229 19.775 33.6229 19.0507V18.2142H34.4663C35.1906 18.2142 35.7771 17.6278 35.7771 16.9035V15.8684H36.6205C37.3448 15.8684 37.9313 15.282 37.9313 14.5577V13.7142H38.7747C39.499 13.7142 40.0855 13.1278 40.0855 12.4035V8.09738C40.0738 7.78897 39.9663 7.50626 39.7887 7.2843Z" fill="white"/>
<path d="M32.3051 20.4779H25.5832C24.7958 20.4779 24.1556 19.8377 24.1556 19.0503V18.3307H23.429C22.6416 18.3307 22.0014 17.6905 22.0014 16.9031V15.9849H21.2748C20.8589 15.9849 20.4687 15.805 20.1977 15.4942C19.929 15.8026 19.5364 15.9849 19.1206 15.9849H18.3939V16.9031C18.3939 17.6905 17.7537 18.3307 16.9664 18.3307H16.2397V19.0503C16.2397 19.8377 15.5995 20.4779 14.8121 20.4779H8.09018C7.3028 20.4779 6.66261 19.8377 6.66261 19.0503V18.3307H5.93598C5.14859 18.3307 4.50841 17.6905 4.50841 16.9031V15.9849H3.78177C2.99439 15.9849 2.3542 15.3447 2.3542 14.5573V13.8307H1.62757C0.840188 13.8307 0.199997 13.1905 0.199997 12.4031V8.09702C0.199997 7.76524 0.314481 7.44515 0.527098 7.19048V2.01524C0.527098 1.22786 1.16729 0.587672 1.95467 0.587672H4.49673C5.23505 0.587672 5.84252 0.67412 6.3542 0.849353C6.59719 0.676456 6.87991 0.587672 7.17664 0.587672H11.0668C11.8542 0.587672 12.4944 1.22786 12.4944 2.01524V2.42178C12.672 2.05963 12.9056 1.74655 13.1953 1.48253C13.8963 0.842346 14.8659 0.517578 16.0808 0.517578C16.4967 0.517578 16.8986 0.543279 17.2771 0.592344C17.6906 0.646083 17.9734 0.702158 18.1906 0.769915L18.3939 0.828326C18.4804 0.854027 18.5692 0.89141 18.6603 0.942812C19.221 0.660101 19.9009 0.517578 20.679 0.517578H21.2561C22.2794 0.517578 23.1159 0.758234 23.7491 1.23253C24.3822 0.758234 25.221 0.517578 26.2444 0.517578H26.8215C27.5248 0.517578 28.1463 0.634401 28.672 0.863373C28.915 0.685803 29.2117 0.587672 29.5154 0.587672H31.9056C32.1299 0.587672 32.3542 0.64141 32.5528 0.744214C32.7164 0.68113 32.8846 0.650756 33.0575 0.650756H35.5364C35.6159 0.650756 35.7 0.657765 35.7864 0.67412C35.8729 0.657765 35.957 0.650756 36.0364 0.650756H38.5154C38.9243 0.650756 39.3145 0.82599 39.5855 1.13207C39.8565 1.43814 39.9827 1.84702 39.9336 2.25122L39.8986 2.53393C39.943 2.70683 39.9547 2.88674 39.9336 3.06431L39.6906 5.04795C39.8542 5.36571 39.9383 5.72318 39.9383 6.11571C39.9383 6.25356 39.9266 6.39141 39.9056 6.52225C39.9266 6.65309 39.9383 6.79094 39.9383 6.92879C39.9383 7.0316 39.9313 7.1344 39.915 7.25122C40.0972 7.49889 40.1953 7.79094 40.1953 8.09702V12.4031C40.1953 13.1905 39.5551 13.8307 38.7678 13.8307H38.0411V14.5573C38.0411 15.3447 37.4009 15.9849 36.6135 15.9849H35.8869V16.9031C35.8869 17.6905 35.2467 18.3307 34.4593 18.3307H33.7327V19.0503C33.7327 19.8377 33.0925 20.4779 32.3051 20.4779ZM20.2 15.1881C20.2374 15.1881 20.2748 15.2068 20.2958 15.2372C20.5201 15.5573 20.8846 15.7512 21.2771 15.7512H22.1206C22.186 15.7512 22.2374 15.8026 22.2374 15.868V16.9031C22.2374 17.562 22.7724 18.097 23.4313 18.097H24.2748C24.3402 18.097 24.3916 18.1484 24.3916 18.2138V19.0503C24.3916 19.7092 24.9266 20.2442 25.5855 20.2442H32.3075C32.9664 20.2442 33.5014 19.7092 33.5014 19.0503V18.2138C33.5014 18.1484 33.5528 18.097 33.6182 18.097H34.4617C35.1206 18.097 35.6556 17.562 35.6556 16.9031V15.868C35.6556 15.8026 35.707 15.7512 35.7724 15.7512H36.6159C37.2748 15.7512 37.8098 15.2162 37.8098 14.5573V13.7138C37.8098 13.6484 37.8612 13.597 37.9266 13.597H38.7701C39.429 13.597 39.964 13.062 39.964 12.4031V8.09702C39.964 7.82599 39.8752 7.56898 39.7047 7.35636C39.6836 7.33066 39.6766 7.29795 39.6813 7.26758C39.7 7.14375 39.7093 7.03627 39.7093 6.93113C39.7093 6.79795 39.6977 6.66945 39.6766 6.54562C39.6743 6.5316 39.6743 6.51758 39.6766 6.5059C39.6977 6.38206 39.7093 6.25122 39.7093 6.12038C39.7093 5.75356 39.6299 5.41945 39.471 5.12973C39.4593 5.1087 39.4547 5.083 39.457 5.05963L39.7047 3.04094C39.7234 2.8844 39.7117 2.73019 39.6696 2.57833C39.6649 2.56431 39.665 2.54795 39.6673 2.53393L39.7047 2.2302C39.7467 1.89141 39.6416 1.55029 39.4149 1.29328C39.1883 1.03627 38.8635 0.891409 38.5201 0.891409H36.0341C35.9617 0.891409 35.8869 0.89842 35.8075 0.914775C35.7934 0.917112 35.7771 0.917112 35.7631 0.914775C35.6836 0.89842 35.6065 0.891409 35.5364 0.891409H33.0575C32.8986 0.891409 32.7421 0.924121 32.5902 0.987205C32.5575 1.00122 32.5201 0.998888 32.4874 0.982533C32.3098 0.882065 32.1065 0.830663 31.9033 0.830663H29.5131C29.2397 0.830663 28.971 0.926458 28.7607 1.09936C28.7257 1.12739 28.679 1.1344 28.6369 1.11571C28.1276 0.882065 27.5177 0.762906 26.8192 0.762906H26.242C25.2327 0.762906 24.4173 1.0059 23.8192 1.48253C23.7771 1.51758 23.7164 1.51758 23.6743 1.48253C23.0785 1.0059 22.2631 0.762906 21.2561 0.762906H20.679C19.9126 0.762906 19.2491 0.907766 18.7117 1.19048C18.6766 1.20917 18.6322 1.20917 18.5972 1.18814C18.5014 1.12973 18.4126 1.09001 18.3262 1.06431L18.1299 1.0059C17.9243 0.942813 17.6533 0.889074 17.2537 0.837672C16.8869 0.788607 16.4944 0.765243 16.0878 0.765243C14.9336 0.765243 14.0154 1.06898 13.3589 1.66711C12.9547 2.03861 12.6626 2.51758 12.4967 3.09468C12.4804 3.15076 12.4266 3.1858 12.3682 3.17879C12.3098 3.16945 12.2678 3.12038 12.2678 3.06197V2.02692C12.2678 1.36805 11.7327 0.832998 11.0738 0.832998H7.18364C6.91729 0.832998 6.66262 0.919447 6.45234 1.08534C6.42196 1.11104 6.37757 1.11805 6.34018 1.10403C5.84252 0.921784 5.24206 0.832998 4.50374 0.832998H1.96168C1.3028 0.832998 0.767752 1.36805 0.767752 2.02692V7.24655C0.767752 7.27459 0.758408 7.30263 0.739716 7.32365C0.548127 7.54094 0.44299 7.82132 0.44299 8.1087V12.4148C0.44299 13.0737 0.978033 13.6087 1.63691 13.6087H2.48037C2.54579 13.6087 2.5972 13.6601 2.5972 13.7255V14.569C2.5972 15.2279 3.13224 15.7629 3.79112 15.7629H4.63224C4.69766 15.7629 4.74906 15.8143 4.74906 15.8797V16.9148C4.74906 17.5737 5.28411 18.1087 5.94298 18.1087H6.78645C6.85187 18.1087 6.90327 18.1601 6.90327 18.2255V19.062C6.90327 19.7208 7.43831 20.2559 8.09719 20.2559H14.8192C15.478 20.2559 16.0131 19.7208 16.0131 19.062V18.2255C16.0131 18.1601 16.0645 18.1087 16.1299 18.1087H16.9734C17.6322 18.1087 18.1673 17.5737 18.1673 16.9148V15.8797C18.1673 15.8143 18.2187 15.7629 18.2841 15.7629H19.1276C19.5178 15.7629 19.8846 15.5713 20.1089 15.2489C20.1252 15.2068 20.1626 15.1881 20.2 15.1881Z" fill="black"/>
<path d="M38.7631 7.98047H1.63689C1.57147 7.98047 1.52007 8.03187 1.52007 8.09729V12.4034C1.52007 12.4688 1.57147 12.5202 1.63689 12.5202H3.67427V14.5576C3.67427 14.623 3.72567 14.6744 3.79109 14.6744H5.82614V16.9034C5.82614 16.9688 5.87754 17.0202 5.94296 17.0202H7.98034V19.0506C7.98034 19.116 8.03175 19.1674 8.09717 19.1674H14.8191C14.8846 19.1674 14.936 19.116 14.936 19.0506V17.0202H16.971C17.0364 17.0202 17.0878 16.9688 17.0878 16.9034V14.6744H19.1252C19.1906 14.6744 19.242 14.623 19.242 14.5576V12.5202H21.1626V14.5576C21.1626 14.623 21.214 14.6744 21.2794 14.6744H23.3145V16.9034C23.3145 16.9688 23.3659 17.0202 23.4313 17.0202H25.4687V19.0506C25.4687 19.116 25.5201 19.1674 25.5855 19.1674H32.3075C32.3729 19.1674 32.4243 19.116 32.4243 19.0506V17.0202H34.4593C34.5247 17.0202 34.5761 16.9688 34.5761 16.9034V14.6744H36.6135C36.6789 14.6744 36.7303 14.623 36.7303 14.5576V12.5202H38.7654C38.8308 12.5202 38.8822 12.4688 38.8822 12.4034V8.09729C38.8799 8.03421 38.8285 7.98047 38.7631 7.98047Z" fill="black"/>
<path d="M10.249 12.4033H8.0948V14.5575H10.249V12.4033Z" fill="white"/>
<path d="M12.4032 14.6533H10.249V16.8075H12.4032V14.6533Z" fill="white"/>
<path d="M27.7373 12.4033H25.5831V14.5575H27.7373V12.4033Z" fill="white"/>
<path d="M29.8893 14.6533H27.735V16.8075H29.8893V14.6533Z" fill="white"/>
<path d="M6.67655 5.18855C6.73029 5.11145 6.78169 4.99463 6.83309 4.82874C6.88216 4.66519 6.90786 4.48528 6.90786 4.29603C6.90786 3.74229 6.70692 3.33341 6.31206 3.07874C5.92889 2.83341 5.33776 2.71191 4.50599 2.71191H1.96393C1.89851 2.71191 1.84711 2.76332 1.84711 2.82874V7.6278C1.84711 7.69322 1.89851 7.74462 1.96393 7.74462H5.29104C5.85178 7.74462 6.28169 7.60677 6.56907 7.33808C6.85879 7.06705 7.00599 6.69089 7.00599 6.22593C7.00599 6.05537 6.99197 5.9035 6.9616 5.77033C6.90085 5.49463 6.80739 5.30304 6.67655 5.18855ZM5.02001 5.75864C5.02001 5.78201 5.01299 5.8007 4.9943 5.81939C4.97328 5.84042 4.95459 5.84509 4.94057 5.84509H4.46627V5.68388H4.94057C4.97094 5.68388 4.9873 5.69556 4.99664 5.70491C5.013 5.71659 5.02001 5.73528 5.02001 5.75864ZM4.4686 5.10677V4.78434H4.55272C4.58543 4.78434 4.60178 4.79603 4.61113 4.80537C4.6158 4.81004 4.62982 4.82173 4.62982 4.86145V5.10677H4.4686Z" fill="black"/>
<path d="M11.1368 5.72593H9.69058V5.68154H11.0738C11.1392 5.68154 11.1906 5.63014 11.1906 5.56472V5.1278C11.1906 5.06238 11.1392 5.01098 11.0738 5.01098H9.69058V4.96659H11.0738C11.1392 4.96659 11.1906 4.91519 11.1906 4.84976V2.82874C11.1906 2.76332 11.1392 2.71191 11.0738 2.71191H7.18358C7.11816 2.71191 7.06675 2.76332 7.06675 2.82874V7.6278C7.06675 7.69322 7.11816 7.74462 7.18358 7.74462H11.1345C11.1999 7.74462 11.2513 7.69322 11.2513 7.6278V5.84276C11.2537 5.77733 11.2023 5.72593 11.1368 5.72593Z" fill="black"/>
<path d="M18.0178 2.89627L17.8098 2.83319C17.6673 2.7888 17.4407 2.74674 17.1135 2.70468C16.7911 2.66263 16.4477 2.6416 16.0878 2.6416C15.2093 2.6416 14.5364 2.84954 14.0855 3.2631C13.6322 3.67665 13.4009 4.32384 13.4009 5.18599C13.4009 6.04581 13.6346 6.70702 14.0925 7.14861C14.5505 7.5902 15.2164 7.81216 16.0692 7.81216C16.9056 7.81216 17.5621 7.73039 18.0201 7.56917C18.0668 7.55282 18.0972 7.50842 18.0972 7.45936V5.38459C18.0972 5.35188 18.0832 5.32151 18.0598 5.29814C18.0364 5.27711 18.0037 5.26543 17.971 5.26777L17.8051 5.28179C17.4664 5.30982 17.0785 5.32384 16.6486 5.32384C16.4944 5.32384 16.3706 5.32151 16.2794 5.31683V5.16029C17.0201 5.16263 17.5878 5.19768 17.9617 5.2631C17.9944 5.26777 18.0294 5.25842 18.0575 5.2374C18.0832 5.21637 18.0995 5.18366 18.0995 5.14861V3.00842C18.1019 2.95702 18.0668 2.91029 18.0178 2.89627Z" fill="black"/>
<path d="M26.8191 2.6416H26.242C25.3799 2.6416 24.7374 2.85188 24.3355 3.26777C23.9944 3.61824 23.7981 4.13926 23.7467 4.81917C23.693 4.1416 23.499 3.61824 23.1603 3.26777C22.7584 2.85188 22.1182 2.6416 21.2561 2.6416H20.679C19.8168 2.6416 19.1743 2.85188 18.7724 3.26777C18.3705 3.68132 18.1673 4.33319 18.1673 5.20235C18.1673 6.07151 18.3729 6.73039 18.7748 7.16029C19.179 7.59254 19.8215 7.81216 20.679 7.81216H21.2561C22.1159 7.81216 22.7537 7.59254 23.1579 7.16029C23.4967 6.79581 23.693 6.26777 23.7467 5.58553C23.8005 6.26543 23.9967 6.79581 24.3378 7.16029C24.742 7.59254 25.3846 7.81216 26.242 7.81216H26.8191C27.679 7.81216 28.3168 7.59254 28.721 7.16029C29.1229 6.73039 29.3262 6.07151 29.3262 5.20235C29.3262 4.33319 29.1229 3.68132 28.7233 3.26777C28.3215 2.85188 27.6813 2.6416 26.8191 2.6416ZM26.6112 5.04347V5.84954C26.6112 5.88459 26.5995 5.90095 26.5878 5.91029C26.5645 5.93132 26.4874 5.93366 26.4687 5.91496C26.4593 5.90562 26.4476 5.88926 26.4476 5.84954V5.04347C26.4476 5.01076 26.457 4.9944 26.4687 4.98506C26.478 4.97571 26.4897 4.96637 26.5224 4.96637C26.5505 4.96637 26.5715 4.97338 26.5878 4.98973C26.6042 5.00375 26.6112 5.02011 26.6112 5.04347ZM21.0481 5.04347V5.84954C21.0481 5.88459 21.0364 5.90095 21.0271 5.91029C20.9897 5.94534 20.9243 5.93366 20.9079 5.91496C20.8986 5.90562 20.8869 5.88926 20.8869 5.84954V5.04347C20.8869 5.01076 20.8986 4.9944 20.9079 4.98506C20.9173 4.97571 20.929 4.96637 20.9617 4.96637C20.9897 4.96637 21.0107 4.97338 21.0271 4.98973C21.0411 5.00375 21.0481 5.02011 21.0481 5.04347Z" fill="black"/>
<path d="M32.6112 5.72593H32.0201V2.82874C32.0201 2.76332 31.9687 2.71191 31.9033 2.71191H29.5131C29.4476 2.71191 29.3962 2.76332 29.3962 2.82874V7.6278C29.3962 7.69322 29.4476 7.74462 29.5131 7.74462H32.6112C32.6766 7.74462 32.728 7.69322 32.728 7.6278V5.84276C32.728 5.77733 32.6766 5.72593 32.6112 5.72593Z" fill="black"/>
<path d="M35.2748 5.95237L35.6509 2.9033C35.6556 2.87059 35.6439 2.83554 35.6229 2.81218C35.6019 2.78648 35.5692 2.77246 35.5365 2.77246H33.0575C33.0248 2.77246 32.9921 2.78648 32.9687 2.81218C32.9477 2.83788 32.936 2.87059 32.9407 2.9033L33.3285 5.95237C33.3355 6.01078 33.3846 6.05517 33.4453 6.05517H33.6182C33.436 6.08788 33.2865 6.16031 33.1743 6.27713C33.0178 6.43601 32.9383 6.65564 32.9383 6.929C32.9383 7.20237 33.0154 7.41966 33.1696 7.5762C33.3238 7.73274 33.5481 7.81218 33.8402 7.81218H34.7421C35.0271 7.81218 35.2514 7.73274 35.408 7.5762C35.5645 7.41966 35.6439 7.20003 35.6439 6.92667C35.6439 6.6533 35.5645 6.43368 35.408 6.2748C35.2935 6.16031 35.1463 6.08555 34.964 6.05283H35.158C35.2187 6.05517 35.2678 6.01078 35.2748 5.95237Z" fill="black"/>
<path d="M37.9453 6.05517H38.1393C38.1977 6.05517 38.2491 6.01078 38.2561 5.95237L38.6299 2.9033C38.6346 2.87059 38.6229 2.83554 38.6019 2.81218C38.5809 2.78648 38.5481 2.77246 38.5154 2.77246H36.0341C36.0014 2.77246 35.9687 2.78648 35.9453 2.81218C35.9243 2.83788 35.9126 2.87059 35.9173 2.9033L36.3075 5.95237C36.3145 6.01078 36.3636 6.05517 36.4243 6.05517H36.5972C36.415 6.08788 36.2654 6.16031 36.1533 6.27713C35.9967 6.43601 35.9173 6.65564 35.9173 6.929C35.9173 7.20237 35.9944 7.41966 36.1486 7.5762C36.3028 7.73274 36.5271 7.81218 36.8192 7.81218H37.721C38.0061 7.81218 38.2304 7.73274 38.3869 7.5762C38.5435 7.41966 38.6229 7.20237 38.6229 6.92667C38.6229 6.6533 38.5435 6.43368 38.3869 6.2748C38.2748 6.16265 38.1276 6.08788 37.9453 6.05517Z" fill="black"/>
<path d="M1.96149 6.81469V2.01562H4.50355C5.30495 2.01562 5.88673 2.13245 6.24654 2.36376C6.60869 2.59506 6.7886 2.9689 6.7886 3.48291C6.7886 3.66282 6.76523 3.83105 6.7185 3.98291C6.67177 4.13478 6.62504 4.2446 6.58065 4.31002L6.51056 4.40815C6.6671 4.48759 6.77925 4.67918 6.84467 4.98525C6.87271 5.11142 6.88672 5.25394 6.88672 5.41516C6.88672 5.84974 6.75355 6.19319 6.48719 6.44319C6.22084 6.69319 5.82131 6.81703 5.28859 6.81703H1.96149V6.81469ZM4.74654 4.41048V4.04833C4.74654 3.98759 4.72785 3.94086 4.69046 3.90581C4.65308 3.87076 4.60635 3.85441 4.55262 3.85441H4.35168V4.41048H4.74654ZM4.9428 4.75161H4.35168V5.14647H4.9428C4.9942 5.14647 5.0386 5.12777 5.07832 5.08806C5.11804 5.04834 5.13673 5.00161 5.13673 4.94553C5.13673 4.88946 5.11804 4.84506 5.08065 4.80768C5.04327 4.7703 4.99654 4.75161 4.9428 4.75161Z" fill="#FF5B2B"/>
<path d="M5.28875 6.93115H1.96165C1.89623 6.93115 1.84483 6.87975 1.84483 6.81433V2.01526C1.84483 1.94984 1.89623 1.89844 1.96165 1.89844H4.50371C5.33548 1.89844 5.9266 2.0176 6.30978 2.26526C6.70464 2.5176 6.90557 2.92881 6.90557 3.48255C6.90557 3.67414 6.87987 3.85404 6.83081 4.01526C6.7794 4.18115 6.73034 4.30031 6.67426 4.37507C6.8051 4.49189 6.89856 4.68115 6.95698 4.95685C6.98501 5.08769 7.00137 5.2419 7.00137 5.41246C7.00137 5.87975 6.85417 6.25358 6.56445 6.5246C6.2794 6.7933 5.8495 6.93115 5.28875 6.93115ZM2.07847 6.6975H5.28875C5.78875 6.6975 6.16492 6.58302 6.40791 6.35404C6.6509 6.12507 6.77006 5.81666 6.77006 5.41246C6.77006 5.26059 6.75604 5.12274 6.73034 5.00591C6.67427 4.73722 6.58081 4.57133 6.45931 4.50825C6.42894 4.49189 6.40557 4.46619 6.39856 4.43115C6.38922 4.39844 6.39623 4.36339 6.41726 4.33535L6.48735 4.23722C6.51305 4.19984 6.55744 4.11806 6.60884 3.94517C6.6509 3.80498 6.67426 3.64844 6.67426 3.48021C6.67426 3.00358 6.51538 2.6718 6.18594 2.46152C5.84482 2.24423 5.2794 2.13208 4.50604 2.13208H2.0808V6.6975H2.07847ZM4.94295 5.26292H4.35183C4.28641 5.26292 4.23501 5.21152 4.23501 5.1461V4.75124C4.23501 4.68582 4.28641 4.63442 4.35183 4.63442H4.94295C5.0294 4.63442 5.10651 4.66479 5.16492 4.7232C5.22333 4.78161 5.25604 4.85872 5.25604 4.94517C5.25604 5.03162 5.22333 5.10872 5.16258 5.16947C5.09949 5.23255 5.02473 5.26292 4.94295 5.26292ZM4.46865 5.02928H4.94295C4.95697 5.02928 4.97333 5.02694 4.99669 5.00358C5.01305 4.98722 5.0224 4.96853 5.0224 4.94283C5.0224 4.91947 5.01538 4.90077 5.00136 4.88676C4.99202 4.87741 4.97566 4.86573 4.94529 4.86573H4.47099V5.02928H4.46865ZM4.74669 4.52694H4.35183C4.28641 4.52694 4.23501 4.47554 4.23501 4.41012V3.85404C4.23501 3.78862 4.28641 3.73722 4.35183 3.73722H4.55277C4.63688 3.73722 4.71398 3.76526 4.7724 3.82133C4.83314 3.87741 4.86585 3.95685 4.86585 4.04797V4.41012C4.86352 4.47554 4.81211 4.52694 4.74669 4.52694ZM4.46865 4.2933H4.62987V4.04797C4.62987 4.00825 4.61585 3.99657 4.61118 3.9919C4.60183 3.98255 4.58548 3.97087 4.55277 3.97087H4.46865V4.2933Z" fill="black"/>
<path d="M7.18594 2.01562H11.0761V4.03665H9.57613V4.31469H11.0761V4.75161H9.57613V5.02964H11.1392V6.81469H7.18828V2.01562H7.18594Z" fill="#FF5B2B"/>
<path d="M11.1369 6.93115H7.18593C7.12051 6.93115 7.06911 6.87975 7.06911 6.81433V2.01526C7.06911 1.94984 7.12051 1.89844 7.18593 1.89844H11.0761C11.1415 1.89844 11.1929 1.94984 11.1929 2.01526V4.03629C11.1929 4.10171 11.1415 4.15311 11.0761 4.15311H9.69295V4.1975H11.0761C11.1415 4.1975 11.1929 4.2489 11.1929 4.31432V4.75124C11.1929 4.81666 11.1415 4.86806 11.0761 4.86806H9.69295V4.91246H11.1392C11.2046 4.91246 11.256 4.96386 11.256 5.02928V6.81433C11.2537 6.87741 11.2023 6.93115 11.1369 6.93115ZM7.30276 6.6975H11.02V5.1461H9.57378C9.50836 5.1461 9.45696 5.0947 9.45696 5.02928V4.75124C9.45696 4.68582 9.50836 4.63442 9.57378 4.63442H10.957V4.43115H9.57378C9.50836 4.43115 9.45696 4.37974 9.45696 4.31432V4.03629C9.45696 3.97087 9.50836 3.91947 9.57378 3.91947H10.957V2.13208H7.30042V6.6975H7.30276Z" fill="black"/>
<path d="M16.1649 4.23074V4.61158C16.2584 4.62093 16.4196 4.6256 16.6509 4.6256C17.0855 4.6256 17.4757 4.61158 17.8168 4.58355L17.9827 4.56953V6.64663C17.5341 6.80317 16.8963 6.88261 16.0692 6.88261C15.2421 6.88261 14.6112 6.67233 14.1743 6.24943C13.7374 5.82887 13.5177 5.20271 13.5177 4.37093C13.5177 3.53916 13.7327 2.92701 14.1626 2.53448C14.5925 2.14196 15.235 1.94336 16.0855 1.94336C16.443 1.94336 16.7794 1.96439 17.0972 2.00644C17.4149 2.0485 17.6392 2.09056 17.7748 2.13261L17.9827 2.1957V4.33588C17.5832 4.26579 16.9757 4.23074 16.1649 4.23074Z" fill="#FF5B2B"/>
<path d="M16.0713 7.00161C15.2185 7.00161 14.5527 6.77732 14.0947 6.33806C13.6344 5.89648 13.4031 5.23526 13.4031 4.37545C13.4031 3.5133 13.6321 2.8661 14.0877 2.45255C14.5386 2.04133 15.2115 1.83105 16.09 1.83105C16.4499 1.83105 16.7956 1.85208 17.1157 1.89414C17.4428 1.93619 17.6718 1.98059 17.812 2.02264L18.0199 2.08573C18.069 2.09975 18.1041 2.14648 18.1041 2.19788V4.33806C18.1041 4.37311 18.09 4.40582 18.062 4.42685C18.0363 4.44788 18.0013 4.45722 17.9662 4.45255C17.59 4.38713 17.0246 4.35442 16.284 4.34975V4.50629C16.3751 4.51096 16.4989 4.5133 16.6531 4.5133C17.083 4.5133 17.4732 4.49928 17.8097 4.47124L17.9755 4.45722C18.0083 4.45255 18.041 4.46657 18.0643 4.4876C18.0877 4.50863 18.1017 4.54133 18.1017 4.57404V6.65115C18.1017 6.70021 18.0713 6.74461 18.0246 6.76096C17.5643 6.91984 16.9078 7.00161 16.0713 7.00161ZM16.0877 2.06236C15.2699 2.06236 14.6485 2.25162 14.2419 2.62311C13.8377 2.99227 13.6344 3.58105 13.6344 4.37311C13.6344 5.1675 13.8424 5.77031 14.2559 6.1675C14.6695 6.5647 15.2793 6.76797 16.0713 6.76797C16.833 6.76797 17.4382 6.70021 17.8681 6.5647V4.70021L17.8284 4.70255C17.4849 4.73059 17.0877 4.74461 16.6508 4.74461C16.4125 4.74461 16.2513 4.73993 16.1531 4.73059C16.0924 4.72358 16.048 4.67451 16.048 4.61376V4.23292C16.048 4.1675 16.0994 4.1161 16.1648 4.1161C16.8914 4.1161 17.4639 4.14414 17.8681 4.20021V2.28433L17.7419 2.24694C17.6134 2.20722 17.3938 2.1675 17.083 2.12545C16.7723 2.08339 16.4382 2.06236 16.0877 2.06236Z" fill="black"/>
<path d="M20.6789 1.94531H21.256C22.0901 1.94531 22.6953 2.14157 23.0761 2.53643C23.4546 2.92896 23.6462 3.54812 23.6462 4.39157C23.6462 5.23503 23.4546 5.8612 23.0738 6.27008C22.6929 6.67896 22.0854 6.88456 21.2583 6.88456H20.6812C19.8518 6.88456 19.2467 6.67896 18.8611 6.27008C18.4756 5.8612 18.284 5.23503 18.284 4.39157C18.284 3.54812 18.4756 2.93129 18.8565 2.53643C19.2373 2.14157 19.8471 1.94531 20.6789 1.94531ZM20.77 4.23036V5.03643C20.77 5.09718 20.7864 5.14625 20.8214 5.18129C20.8565 5.21868 20.9032 5.23737 20.9593 5.23737C21.0177 5.23737 21.0668 5.21868 21.1041 5.18129C21.1439 5.14391 21.1625 5.09485 21.1625 5.03643V4.23036C21.1625 4.17428 21.1439 4.12756 21.1041 4.09017C21.0644 4.05279 21.0154 4.0341 20.9593 4.0341C20.9009 4.0341 20.8541 4.05279 20.8214 4.09017C20.7864 4.12989 20.77 4.17428 20.77 4.23036Z" fill="#FF5B2B"/>
<path d="M21.256 7.00161H20.6789C19.8191 7.00161 19.1789 6.78199 18.7747 6.34975C18.3705 5.91984 18.1672 5.26096 18.1672 4.3918C18.1672 3.52264 18.3705 2.87077 18.7724 2.45722C19.1766 2.04134 19.8168 1.83105 20.6789 1.83105H21.256C22.1182 1.83105 22.7584 2.04134 23.1602 2.45722C23.5598 2.87077 23.763 3.52264 23.763 4.3918C23.763 5.26096 23.5598 5.91984 23.1579 6.34975C22.7537 6.78199 22.1135 7.00161 21.256 7.00161ZM20.6789 2.06236C19.8822 2.06236 19.2981 2.24928 18.9406 2.61844C18.5831 2.9876 18.4009 3.58339 18.4009 4.3918C18.4009 5.20021 18.5831 5.80535 18.9453 6.19087C19.3051 6.57404 19.8892 6.76797 20.6789 6.76797H21.256C22.0481 6.76797 22.6299 6.57404 22.9873 6.19087C23.3471 5.80535 23.5294 5.20021 23.5294 4.3918C23.5294 3.58339 23.3495 2.9876 22.992 2.61844C22.6369 2.24928 22.0528 2.0647 21.256 2.0647H20.6789V2.06236ZM20.9616 5.35442C20.8705 5.35442 20.7934 5.32171 20.7373 5.26096C20.6813 5.20255 20.6532 5.12545 20.6532 5.03433V4.22825C20.6532 4.14414 20.6813 4.06704 20.7373 4.00862C20.8495 3.88947 21.0644 3.88713 21.1883 4.00395C21.2513 4.0647 21.2841 4.1418 21.2841 4.22825V5.03433C21.2841 5.12545 21.2513 5.20722 21.1883 5.26563C21.1252 5.32404 21.0481 5.35442 20.9616 5.35442ZM20.9616 4.15349C20.9289 4.15349 20.9172 4.16283 20.9079 4.17218C20.8985 4.18386 20.8869 4.19788 20.8869 4.23059V5.03666C20.8869 5.07638 20.8985 5.09274 20.9079 5.10208C20.9242 5.12077 20.9897 5.13246 21.0271 5.09741C21.0387 5.08806 21.0481 5.07171 21.0481 5.03666V4.23059C21.0481 4.20722 21.0411 4.19087 21.0247 4.17685C21.0084 4.16049 20.9897 4.15349 20.9616 4.15349Z" fill="black"/>
<path d="M26.242 1.94531H26.8191C27.6532 1.94531 28.2584 2.14157 28.6392 2.53643C29.0177 2.92896 29.2093 3.54812 29.2093 4.39157C29.2093 5.23503 29.0177 5.8612 28.6369 6.27008C28.256 6.67896 27.6486 6.88456 26.8215 6.88456H26.2444C25.4149 6.88456 24.8098 6.67896 24.4243 6.27008C24.0387 5.8612 23.8472 5.23503 23.8472 4.39157C23.8472 3.54812 24.0388 2.93129 24.4196 2.53643C24.8004 2.14157 25.4079 1.94531 26.242 1.94531ZM26.3331 4.23036V5.03643C26.3331 5.09718 26.3495 5.14625 26.3845 5.18129C26.4196 5.21868 26.4663 5.23737 26.5224 5.23737C26.5808 5.23737 26.6299 5.21868 26.6673 5.18129C26.707 5.14391 26.7257 5.09485 26.7257 5.03643V4.23036C26.7257 4.17428 26.707 4.12756 26.6673 4.09017C26.6275 4.05279 26.5785 4.0341 26.5224 4.0341C26.464 4.0341 26.4173 4.05279 26.3845 4.09017C26.3495 4.12989 26.3331 4.17428 26.3331 4.23036Z" fill="#FF5B2B"/>
<path d="M26.8191 7.00161H26.242C25.3845 7.00161 24.742 6.78199 24.3378 6.34975C23.9336 5.91984 23.7303 5.26096 23.7303 4.3918C23.7303 3.52264 23.9336 2.87077 24.3354 2.45722C24.7396 2.04134 25.3798 1.83105 26.242 1.83105H26.8191C27.6812 1.83105 28.3214 2.04134 28.7233 2.45722C29.1228 2.87077 29.3261 3.52264 29.3261 4.3918C29.3261 5.26096 29.1228 5.91984 28.7209 6.34975C28.3167 6.78199 27.6765 7.00161 26.8191 7.00161ZM26.242 2.06236C25.4452 2.06236 24.8611 2.24928 24.5036 2.61844C24.1462 2.9876 23.9639 3.58339 23.9639 4.3918C23.9639 5.20021 24.1462 5.80535 24.5083 6.19087C24.8681 6.57404 25.4522 6.76797 26.242 6.76797H26.8191C27.6111 6.76797 28.1929 6.57404 28.5504 6.19087C28.9102 5.80535 29.0924 5.20021 29.0924 4.3918C29.0924 3.58339 28.9125 2.9876 28.5551 2.61844C28.1999 2.24928 27.6158 2.0647 26.8191 2.0647H26.242V2.06236ZM26.5247 5.35442C26.4359 5.35442 26.3565 5.32171 26.3004 5.26096C26.2443 5.20255 26.2163 5.12545 26.2163 5.03433V4.22825C26.2163 4.14414 26.2443 4.06937 26.3004 4.00862C26.4125 3.88947 26.6275 3.88713 26.7513 4.00395C26.8144 4.0647 26.8471 4.1418 26.8471 4.22825V5.03433C26.8471 5.12545 26.8144 5.20722 26.7513 5.26563C26.6882 5.32404 26.6111 5.35442 26.5247 5.35442ZM26.5247 4.15349C26.492 4.15349 26.4803 4.16283 26.4709 4.17218C26.4616 4.18152 26.4499 4.19788 26.4499 4.23059V5.03666C26.4499 5.07638 26.4616 5.09274 26.4709 5.10208C26.4896 5.12077 26.5691 5.11844 26.5901 5.09741C26.6018 5.08806 26.6135 5.07171 26.6135 5.03666V4.23059C26.6135 4.20722 26.6065 4.19087 26.5901 4.17685C26.5714 4.16049 26.5527 4.15349 26.5247 4.15349Z" fill="black"/>
<path d="M29.513 2.01562H31.9032V5.02964H32.6111V6.81469H29.513V2.01562Z" fill="#FF5B2B"/>
<path d="M32.6111 6.93115H29.513C29.4476 6.93115 29.3962 6.87975 29.3962 6.81433V2.01526C29.3962 1.94984 29.4476 1.89844 29.513 1.89844H31.9032C31.9686 1.89844 32.02 1.94984 32.02 2.01526V4.91246H32.6111C32.6766 4.91246 32.728 4.96386 32.728 5.02928V6.81433C32.728 6.87741 32.6766 6.93115 32.6111 6.93115ZM29.6298 6.6975H32.4943V5.1461H31.9032C31.8378 5.1461 31.7864 5.0947 31.7864 5.02928V2.13208H29.6298V6.6975Z" fill="black"/>
<path d="M35.1603 5.12817H33.4453L33.0575 2.0791H35.5365L35.1603 5.12817ZM33.8402 5.34312H34.7421C34.9967 5.34312 35.1907 5.41088 35.3262 5.54873C35.4594 5.68424 35.5271 5.87583 35.5271 6.11882C35.5271 6.36181 35.4594 6.55106 35.3262 6.68424C35.193 6.81742 34.9967 6.88518 34.7421 6.88518H33.8402C33.5809 6.88518 33.3846 6.81742 33.2538 6.68424C33.1229 6.54873 33.0552 6.36181 33.0552 6.11882C33.0552 5.87583 33.1229 5.68658 33.2561 5.54873C33.3916 5.41088 33.5855 5.34312 33.8402 5.34312Z" fill="#FF5B2B"/>
<path d="M34.742 7.00163H33.8402C33.5504 7.00163 33.3238 6.9222 33.1696 6.76565C33.0154 6.60911 32.9383 6.39182 32.9383 6.11846C32.9383 5.84509 33.0177 5.62547 33.1743 5.46659C33.2864 5.3521 33.436 5.27734 33.6182 5.24462H33.4453C33.3869 5.24462 33.3378 5.20023 33.3285 5.14182L32.9406 2.09276C32.936 2.06005 32.9476 2.025 32.9687 2.00163C32.992 1.97593 33.0224 1.96191 33.0574 1.96191H35.5364C35.5691 1.96191 35.6018 1.97593 35.6229 2.00163C35.6439 2.02733 35.6556 2.06005 35.6509 2.09276L35.2747 5.14182C35.2677 5.20023 35.2187 5.24462 35.1579 5.24462H34.964C35.1462 5.27734 35.2958 5.34976 35.4079 5.46659C35.5645 5.62547 35.6439 5.84509 35.6439 6.11846C35.6439 6.39182 35.5645 6.61145 35.4079 6.76799C35.2537 6.92219 35.0294 7.00163 34.742 7.00163ZM33.8402 5.45958C33.6159 5.45958 33.4523 5.51565 33.3402 5.63014C33.228 5.74463 33.1719 5.9035 33.1719 6.11846C33.1719 6.33107 33.2257 6.48995 33.3355 6.6021C33.443 6.71191 33.6135 6.76799 33.8402 6.76799H34.742C34.964 6.76799 35.1322 6.71191 35.242 6.6021C35.3542 6.48995 35.4103 6.33107 35.4103 6.11846C35.4103 5.90584 35.3542 5.74696 35.242 5.63014C35.1299 5.51565 34.9663 5.45958 34.742 5.45958H33.8402ZM33.5481 5.01098H35.0574L35.4032 2.19556H33.1883L33.5481 5.01098Z" fill="black"/>
<path d="M38.1393 5.12817H36.4244L36.0365 2.0791H38.5155L38.1393 5.12817ZM36.8192 5.34312H37.7211C37.9758 5.34312 38.1697 5.41088 38.3052 5.54873C38.4384 5.68424 38.5061 5.87583 38.5061 6.11882C38.5061 6.36181 38.4384 6.55106 38.3052 6.68424C38.172 6.81742 37.9758 6.88518 37.7211 6.88518H36.8192C36.5599 6.88518 36.3636 6.81742 36.2328 6.68424C36.1019 6.54873 36.0342 6.36181 36.0342 6.11882C36.0342 5.87583 36.1019 5.68658 36.2351 5.54873C36.3706 5.41088 36.5646 5.34312 36.8192 5.34312Z" fill="#FF5B2B"/>
<path d="M37.7232 7.00163H36.8214C36.5316 7.00163 36.305 6.9222 36.1508 6.76565C35.9966 6.60911 35.9195 6.39182 35.9195 6.11846C35.9195 5.84509 35.9989 5.62547 36.1555 5.46659C36.2676 5.3521 36.4172 5.27734 36.5994 5.24462H36.4265C36.3681 5.24462 36.319 5.20023 36.3097 5.14182L35.9195 2.09276C35.9148 2.06005 35.9265 2.025 35.9475 2.00163C35.9709 1.97593 36.0013 1.96191 36.0363 1.96191H38.5153C38.548 1.96191 38.5807 1.97593 38.6017 2.00163C38.6228 2.02733 38.6344 2.06005 38.6298 2.09276L38.2559 5.14182C38.2489 5.20023 38.1999 5.24462 38.1391 5.24462H37.9452C38.1274 5.27734 38.277 5.34976 38.3891 5.46659C38.5457 5.62547 38.6251 5.84509 38.6251 6.11846C38.6251 6.39182 38.5457 6.61145 38.3891 6.76799C38.2326 6.92219 38.0083 7.00163 37.7232 7.00163ZM36.819 5.45958C36.5947 5.45958 36.4312 5.51565 36.319 5.63014C36.2069 5.74463 36.1508 5.9035 36.1508 6.11846C36.1508 6.33107 36.2045 6.48995 36.3144 6.6021C36.4218 6.71191 36.5924 6.76799 36.8167 6.76799H37.7186C37.9405 6.76799 38.1087 6.71191 38.2186 6.6021C38.3307 6.48995 38.3868 6.33107 38.3868 6.11846C38.3868 5.90584 38.333 5.74696 38.2186 5.63014C38.1064 5.51565 37.9429 5.45958 37.7186 5.45958H36.819ZM36.527 5.01098H38.0363L38.3821 2.19556H36.1672L36.527 5.01098Z" fill="black"/>
</svg>
