<svg width="31" height="30" viewBox="0 0 31 30" fill="none" xmlns="http://www.w3.org/2000/svg">
<path d="M15.3382 16.913C15.8894 16.4416 16.3923 15.9999 16.8424 15.4397C16.9637 15.2886 16.8643 14.9031 16.9356 14.8222C16.5198 15.2931 17.4868 14.8638 18.0335 14.5374C19.1107 13.894 20.1709 13.2439 21.1582 12.4663C24.2305 10.0451 25.7926 6.92104 25.3318 2.99461C25.2453 2.2563 24.0743 2.24731 24.162 2.99461C24.7183 7.73465 22.0167 10.7446 18.1633 13.0995C17.3756 13.581 16.5271 13.9777 15.8529 14.6031C15.7236 14.7228 15.8574 15.0144 15.7877 15.0947C15.7309 15.1599 14.8252 15.8179 14.5105 16.0865C13.938 16.5759 14.769 17.4001 15.3382 16.913Z" fill="#123342"/>
<path d="M14.4583 10.2487C14.1065 8.33271 14.4066 6.7645 14.7825 4.85354C15.1584 2.94201 16.1501 1.0923 17.7633 0C19.7641 1.68846 20.6952 4.45797 20.426 7.0623C20.1574 9.66662 18.7842 12.0833 16.898 13.8993L16.5221 14.9567C15.4815 14.3645 14.674 11.4259 14.4583 10.2487Z" fill="#DE2D35"/>
<path d="M20.1417 17.6492C19.0444 17.1716 16.8575 16.5187 16.5176 15.3708L15.6973 14.5325C17.8942 13.1087 22.0358 12.0338 24.6329 12.3636C27.2299 12.6935 29.7156 14.2296 30.9051 16.5615C29.4752 17.8841 27.4479 18.4291 25.5015 18.3612C23.5546 18.2937 21.9274 18.4269 20.1417 17.6492Z" fill="#DE2D35"/>
<path d="M18.6724 28.4246C18.0318 27.9987 17.3879 27.5705 16.8238 27.0474C15.2578 25.5949 14.4094 23.4592 14.3341 21.3241C13.5272 22.1512 12.5849 22.8546 11.6011 23.4677C8.22361 25.5713 4.27245 26.7434 0.294891 26.8215C1.73387 23.7559 3.77069 20.9718 6.25702 18.672C7.71735 17.3212 9.41648 16.1199 11.2488 15.3648C10.6498 15.3243 10.0548 15.2372 9.47211 15.0872C7.36618 14.5467 5.4305 13.2189 4.35225 11.331C3.97129 10.6629 3.70046 9.93867 3.43132 9.21777C3.09924 8.32887 2.76773 7.43942 2.43566 6.55052C4.06456 6.19204 5.75132 6.09876 7.41 6.2752C8.16798 6.35554 8.92372 6.49321 9.63899 6.75617C11.1954 7.32816 12.49 8.47103 13.5008 9.78527C14.5116 11.0995 15.2651 12.5896 16.013 14.0691L15.922 14.5714H15.9236L16.5058 14.9079C16.5176 14.9568 16.5215 15.0074 16.5322 15.0568L16.8075 15.0703C18.079 16.1345 19.3584 17.2072 20.4086 18.4899C21.4587 19.7727 22.278 21.2932 22.4808 22.9389C22.5741 23.6952 22.5364 24.4627 22.4426 25.2185C22.2375 26.8738 21.7633 28.4954 21.0441 30.0001C20.2535 29.4747 19.4629 28.9494 18.6724 28.4246Z" fill="#DE2D35"/>
<path d="M7.27577 20.3262C7.01393 20.5341 6.63353 20.4903 6.42564 20.2285C6.21774 19.9666 6.26156 19.5862 6.52339 19.3783C6.78523 19.1704 7.16563 19.2143 7.37352 19.4761C7.58142 19.7379 7.5376 20.1183 7.27577 20.3262Z" fill="#FFE4C7"/>
<path d="M10.4784 9.06778C10.3661 9.15656 10.2031 9.13802 10.1144 9.02564C10.0256 8.91327 10.0441 8.75032 10.1565 8.66154C10.2689 8.57276 10.4318 8.59131 10.5206 8.70369C10.6094 8.8155 10.5908 8.97901 10.4784 9.06778Z" fill="#FFE4C7"/>
<path d="M18.9404 6.1046C18.7162 6.28271 18.3898 6.24507 18.2117 6.02087C18.0336 5.79668 18.0712 5.47023 18.2954 5.29212C18.5196 5.114 18.846 5.15164 19.0242 5.37583C19.2023 5.60002 19.1646 5.92648 18.9404 6.1046Z" fill="#FFE4C7"/>
<path d="M20.0417 21.1192C19.8175 21.2974 19.4911 21.2597 19.3129 21.0355C19.1348 20.8113 19.1725 20.4849 19.3967 20.3068C19.6209 20.1286 19.9473 20.1663 20.1254 20.3905C20.3035 20.6152 20.2665 20.9411 20.0417 21.1192Z" fill="#FFE4C7"/>
<path d="M19.1399 27.3516C18.8781 27.5595 18.4977 27.5157 18.2898 27.2538C18.0819 26.992 18.1257 26.6116 18.3875 26.4037C18.6494 26.1958 19.0298 26.2396 19.2377 26.5015C19.4456 26.7633 19.4017 27.1437 19.1399 27.3516Z" fill="#FFE4C7"/>
<path d="M5.41425 9.77652C5.22715 9.92486 4.95576 9.89339 4.80686 9.70685C4.65853 9.51974 4.68999 9.24836 4.87653 9.09946C5.06364 8.95112 5.3356 8.98258 5.48394 9.16913C5.63228 9.35623 5.6008 9.62818 5.41425 9.77652Z" fill="#FFE4C7"/>
<path d="M26.8422 14.9503C26.618 15.1284 26.2915 15.0908 26.1134 14.8666C25.9353 14.6424 25.9729 14.3159 26.1971 14.1378C26.4213 13.9597 26.7478 13.9973 26.9259 14.2215C27.104 14.4463 27.0669 14.7722 26.8422 14.9503Z" fill="#FFE4C7"/>
<path d="M14.2048 14.222C15.9118 14.222 15.9146 11.5693 14.2048 11.5693C12.4978 11.5693 12.495 14.222 14.2048 14.222Z" fill="#F8B000"/>
<path d="M14.0576 19.2103C15.7646 19.2103 15.7674 16.5576 14.0576 16.5576C12.3506 16.5576 12.3478 19.2103 14.0576 19.2103Z" fill="#F8B000"/>
<path d="M15.5141 16.3753C17.221 16.3753 17.2239 13.7227 15.5141 13.7227C13.8071 13.7227 13.8042 16.3753 15.5141 16.3753Z" fill="#F8B000"/>
<path d="M17.2474 13.7591C18.9544 13.7591 18.9572 11.1064 17.2474 11.1064C15.5404 11.1064 15.5376 13.7591 17.2474 13.7591Z" fill="#F8B000"/>
<path d="M18.7066 16.3782C20.4136 16.3782 20.4164 13.7256 18.7066 13.7256C16.9996 13.7256 16.9968 16.3782 18.7066 16.3782Z" fill="#F8B000"/>
<path d="M17.3766 18.9681C19.0836 18.9681 19.0865 16.3154 17.3766 16.3154C15.6702 16.3149 15.6674 18.9681 17.3766 18.9681Z" fill="#F8B000"/>
<path d="M12.7513 16.7484C14.4583 16.7484 14.4611 14.0957 12.7513 14.0957C11.0443 14.0957 11.0415 16.7484 12.7513 16.7484Z" fill="#F8B000"/>
<path d="M18.5678 23.5257C18.3413 23.3588 18.1885 23.1672 18.0615 22.9678C17.9351 22.7677 17.8345 22.5593 17.7632 22.3413C17.6896 22.1238 17.648 21.8963 17.6306 21.6603C17.6137 21.4243 17.6238 21.1793 17.7081 20.9102C17.9357 21.077 18.0885 21.2681 18.2155 21.4681C18.3414 21.6681 18.443 21.8766 18.5127 22.0952C18.5852 22.3132 18.6273 22.5407 18.6442 22.7762C18.6605 23.0122 18.6509 23.2571 18.5678 23.5257Z" fill="#123342"/>
<path d="M8.98711 21.5083C9.06071 21.2436 9.18264 21.0402 9.32086 20.8582C9.45965 20.6761 9.61473 20.516 9.78948 20.38C9.96254 20.2424 10.1558 20.1305 10.3654 20.0389C10.575 19.9479 10.8026 19.8794 11.0779 19.8721C11.0048 20.1378 10.8835 20.3412 10.7447 20.5233C10.6059 20.7048 10.4508 20.8655 10.2755 21.0003C10.1019 21.1369 9.90859 21.2492 9.69901 21.3403C9.48887 21.4313 9.26187 21.5004 8.98711 21.5083Z" fill="#123342"/>
<path d="M10.8334 11.8258C10.589 11.8769 10.3778 11.8494 10.1822 11.7926C9.98668 11.7353 9.80631 11.6471 9.64842 11.5291C9.48885 11.4133 9.35344 11.265 9.24162 11.0948C9.13037 10.9245 9.04383 10.729 9.02304 10.4795C9.27252 10.4935 9.46468 10.552 9.64055 10.6261C9.81586 10.7003 9.97544 10.7874 10.1187 10.8964C10.2631 11.0032 10.3929 11.1307 10.5143 11.2774C10.6362 11.4246 10.748 11.5915 10.8334 11.8258Z" fill="#123342"/>
<path d="M17.0793 9.40612C16.9782 9.12069 16.9535 8.85324 16.9546 8.59196C16.9563 8.33069 16.9844 8.07559 17.0434 7.8278C17.0996 7.57889 17.1878 7.3384 17.3013 7.10297C17.4153 6.8681 17.5569 6.63942 17.775 6.42871C17.8767 6.71415 17.9025 6.9816 17.9008 7.24344C17.8986 7.50471 17.871 7.75981 17.8109 8.0076C17.7536 8.25595 17.6659 8.497 17.5519 8.73186C17.4373 8.96617 17.2962 9.19485 17.0793 9.40612Z" fill="#123342"/>
<path d="M20.9131 15.3352C21.1749 15.1818 21.434 15.106 21.6913 15.0582C21.9492 15.0104 22.206 14.9891 22.4617 14.9998C22.7173 15.0076 22.9718 15.0486 23.2252 15.1155C23.4787 15.1829 23.7309 15.2785 23.9804 15.4521C23.7186 15.6066 23.4596 15.6825 23.2022 15.7302C22.9443 15.778 22.6875 15.7993 22.4324 15.7875C22.1768 15.7785 21.9222 15.7381 21.6688 15.6712C21.4149 15.6032 21.162 15.5083 20.9131 15.3352Z" fill="#123342"/>
</svg>
