<svg width="29" height="30" viewBox="0 0 29 30" fill="none" xmlns="http://www.w3.org/2000/svg">
<path d="M10.7258 29.0515C8.80622 27.4529 7.96817 24.7875 8.22242 22.3025C8.2255 22.2726 8.23241 22.2441 8.23548 22.2142C8.19093 22.2165 8.14716 22.2234 8.10261 22.2249C5.80201 22.2895 3.45302 21.297 2.0404 19.4796C0.627772 17.6621 0.264432 15.0335 1.29452 12.9749C1.98815 11.5892 3.23947 10.533 4.64288 9.8762C5.28428 9.57663 5.96792 9.36232 6.66693 9.23481C6.48334 8.45821 6.39654 7.66087 6.43802 6.862C6.55785 4.56293 7.7339 2.30151 9.65888 1.0379C11.5831 -0.224931 14.2324 -0.377786 16.2019 0.81361C17.5278 1.61556 18.481 2.94675 19.0233 4.39855C19.1217 4.66202 19.2031 4.93164 19.2738 5.20433C19.7009 4.9278 20.1502 4.67892 20.6257 4.4792C22.8372 3.55205 25.4597 3.63347 27.0628 4.81181C28.142 5.60453 28.7174 6.82129 28.861 8.10717C29.113 10.3694 27.9677 12.9788 25.7032 14.6241C25.5588 14.7294 25.409 14.8292 25.2569 14.9245C25.8729 15.3938 26.4421 15.9315 26.9391 16.599C28.7565 19.0425 29.0147 22.8026 26.9053 24.9987C25.0533 26.9268 21.8647 27.0842 19.5034 25.8137C19.0011 26.7993 18.2237 27.8009 17.0638 28.7895C14.4936 30.9834 11.4325 29.6399 10.7258 29.0515Z" fill="#EE7264"/>
<path d="M13.7968 11.1019C12.6285 11.363 11.5146 12.1842 11.0515 13.5615C10.5883 14.9388 10.7757 16.6533 11.5223 17.8608C12.5125 19.4624 14.3084 20.0032 15.8447 19.5838C17.2105 19.2104 18.4687 18.1097 19.044 16.5042C19.044 16.5042 20.4013 9.62703 13.7968 11.1019Z" fill="#FFE600"/>
</svg>
