<svg width="34" height="30" viewBox="0 0 34 30" fill="none" xmlns="http://www.w3.org/2000/svg">
<g clip-path="url(#clip0_76_6455)">
<path d="M32.0665 12.7831C31.5432 12.4427 30.8839 12.0175 30.8041 11.7397C30.8377 11.2019 31.0117 10.6783 31.3126 10.2097C31.7738 9.27583 32.2498 8.30807 31.7206 7.5033C31.1914 6.69853 29.9881 6.56812 28.8307 6.45985C28.2308 6.4563 27.6398 6.33182 27.1027 6.09595C26.8349 5.62041 26.6944 5.09701 26.6917 4.56602C26.5617 3.54476 26.4271 2.48828 25.5091 2.01611C24.5912 1.54393 23.4929 1.95741 22.4345 2.36955C21.9029 2.63495 21.309 2.78847 20.6991 2.81825C20.3798 2.74262 19.8995 2.16608 19.5166 1.70436C18.8455 0.906134 18.0901 0.000976562 16.9992 0.000976562C15.9083 0.000976562 15.1529 0.906134 14.4862 1.70436C14.0989 2.16736 13.6185 2.74781 13.3036 2.81953C12.6943 2.78713 12.101 2.63379 11.5683 2.37083C10.5039 1.95735 9.40715 1.54522 8.49806 2.00956C7.58897 2.47391 7.43674 3.53821 7.30661 4.56595C7.30238 5.09511 7.16186 5.6165 6.89565 6.09069C6.35962 6.3232 5.77086 6.44536 5.17357 6.44805C4.01469 6.5628 2.81583 6.68154 2.28222 7.4915C1.74861 8.30147 2.21729 9.26935 2.68438 10.2045C2.98628 10.6746 3.16034 11.2001 3.1929 11.7397C3.10719 12.0214 2.45378 12.4466 1.9305 12.7831C1.02585 13.37 0 14.0379 0 15.0004C0 15.963 1.02585 16.6308 1.93203 17.2177C2.45531 17.5582 3.11461 17.9834 3.19443 18.2612C3.16089 18.799 2.98683 19.3226 2.68591 19.7911C2.22471 20.725 1.74875 21.6928 2.27792 22.4976C2.8071 23.3023 4.01039 23.4327 5.16782 23.541C5.76774 23.5446 6.35879 23.669 6.89586 23.9049C7.16359 24.3804 7.30418 24.9039 7.30682 25.4348C7.43688 26.4561 7.57144 27.5126 8.4894 27.9847C9.40736 28.4569 10.4968 28.0317 11.5567 27.6248C12.0936 27.3623 12.691 27.2107 13.3039 27.1813C13.6232 27.257 14.1036 27.8335 14.4865 28.2952C15.1531 29.0934 15.9085 29.9986 16.9994 29.9986C18.0904 29.9986 18.8457 29.0934 19.5124 28.2952C19.8997 27.8322 20.3801 27.2518 20.695 27.18C21.3047 27.2105 21.8984 27.3639 22.4304 27.6287C23.4888 28.0357 24.5856 28.4531 25.4961 27.99C26.4067 27.527 26.5574 26.4614 26.6876 25.4388C26.6918 24.9097 26.8323 24.3883 27.0985 23.9141C27.6355 23.6797 28.226 23.5561 28.825 23.5528C29.9839 23.438 31.1828 23.3193 31.7164 22.5094C32.25 21.6994 31.7682 20.7381 31.3084 19.8029C31.0075 19.3305 30.8354 18.8026 30.8058 18.2613C30.8916 17.9795 31.545 17.5543 32.0682 17.2178C32.9729 16.6296 34.0003 15.9618 34.0003 15.0005C34.0003 14.0392 32.9726 13.37 32.0665 12.7831Z" fill="#8A80E2"/>
<path d="M12.5645 18.2617C12.3319 18.2617 12.1128 18.165 11.9733 18.0008L8.86905 14.3488V17.6095C8.86905 17.9697 8.53812 18.2617 8.12993 18.2617C7.72174 18.2617 7.39081 17.9697 7.39081 17.6095V12.3924C7.39081 12.0322 7.72174 11.7402 8.12993 11.7402C8.36254 11.7402 8.58163 11.8369 8.72118 12.0011L11.8254 15.6531V12.3924C11.8254 12.0322 12.1563 11.7402 12.5645 11.7402C12.9727 11.7402 13.3036 12.0322 13.3036 12.3924V17.6095C13.3034 17.8901 13.0998 18.1391 12.7981 18.2278C12.7228 18.2503 12.644 18.2617 12.5645 18.2617Z" fill="#FAFAFA"/>
<path d="M18.4774 18.2617H15.5209C15.1127 18.2617 14.7818 17.9697 14.7818 17.6095V12.3924C14.7818 12.0322 15.1127 11.7402 15.5209 11.7402H18.4774C18.8855 11.7402 19.2165 12.0322 19.2165 12.3924C19.2165 12.7526 18.8855 13.0446 18.4774 13.0446H16.2601V16.9574H18.4774C18.8855 16.9574 19.2165 17.2494 19.2165 17.6096C19.2165 17.9698 18.8855 18.2617 18.4774 18.2617Z" fill="#FAFAFA"/>
<path d="M18.4774 15.653H15.5209C15.1127 15.653 14.7818 15.361 14.7818 15.0008C14.7818 14.6406 15.1127 14.3486 15.5209 14.3486H18.4774C18.8855 14.3486 19.2165 14.6406 19.2165 15.0008C19.2165 15.361 18.8855 15.653 18.4774 15.653Z" fill="#FAFAFA"/>
<path d="M25.8682 18.2613C25.5496 18.2617 25.2667 18.0819 25.166 17.8152L24.39 15.7584L23.6139 17.8152C23.5195 18.0967 23.2155 18.2819 22.8837 18.26C22.5554 18.249 22.2748 18.0482 22.1949 17.767L20.7167 12.5499C20.6179 12.2001 20.8592 11.846 21.2555 11.7588C21.6518 11.6716 22.0532 11.8845 22.1521 12.2342L23.0138 15.2784L23.6893 13.4902C23.865 13.1484 24.3214 12.997 24.7088 13.152C24.8788 13.22 25.0151 13.3402 25.0922 13.4902L25.7677 15.2784L26.6295 12.2342C26.7283 11.8845 27.1296 11.6716 27.526 11.7588C27.9224 11.846 28.1636 12.2001 28.0648 12.5499L26.5866 17.767C26.5067 18.0482 26.2261 18.249 25.8978 18.26L25.8682 18.2613Z" fill="#FAFAFA"/>
</g>
<defs>
<clipPath id="clip0_76_6455">
<rect width="34" height="30" fill="white"/>
</clipPath>
</defs>
</svg>
