<svg width="32" height="28" viewBox="0 0 32 28" fill="none" xmlns="http://www.w3.org/2000/svg">
<path d="M5.15097 6.0109C5.15097 6.0109 9.28461 9.47896 13.243 4.07218C13.243 4.07218 16.9985 8.89815 23.3226 1.75391C23.3226 1.75391 20.2211 11.9398 30.7725 10.786C30.7725 10.786 23.1957 15.3887 27.1307 23.4012C27.1307 23.4012 20.7678 19.5434 16.5169 25.7275C16.5169 25.7275 13.7296 19.6951 5.55586 20.5748C5.55586 20.5748 5.97258 14.9625 1.36634 13.1331C1.36634 13.1331 6.89056 11.2536 5.15097 6.0109Z" fill="white"/>
<path d="M30.9227 10.6539C27.5276 10.9908 24.1356 10.0799 23.3852 6.37794C23.0798 4.8711 23.2178 3.16299 23.6604 1.69166C23.7082 1.53255 23.0857 1.70232 23.0128 1.78306C21.2137 3.7734 18.6985 6.12412 15.7847 5.36856C14.9773 5.15926 14.1112 4.64332 13.586 3.98011C13.4657 3.82833 13 4.00947 12.905 4.13425C11.5017 5.97873 9.63042 7.43064 7.21412 6.77738C6.60656 6.61306 5.97436 6.30407 5.48329 5.90226C5.38929 5.78671 4.76752 5.97092 4.80801 6.10257C5.73262 9.10536 4.23169 12.025 1.2495 13.0614C1.23364 13.0669 0.932693 13.2011 1.04256 13.248C3.93714 14.4771 5.42126 17.6025 5.21266 20.6664C5.20863 20.7247 5.38503 20.7086 5.40563 20.7067C9.47415 20.3174 14.3046 21.8375 16.1737 25.8191C16.2521 25.9863 16.7794 25.7704 16.8547 25.665C18.5588 23.2764 20.9386 21.9824 23.8907 22.4771C24.8928 22.6449 25.9303 22.9918 26.8069 23.516C26.9068 23.5757 27.538 23.4448 27.4736 23.3091C26.0504 20.3039 25.9455 17.1011 27.6948 14.2136C28.5012 12.8822 29.697 11.6121 31.0338 10.7912C31.204 10.687 31.0442 10.6418 30.9227 10.6539ZM30.1762 11.0064C29.3804 11.5683 28.649 12.2379 28.0196 12.9812C25.5794 15.8639 25.1227 19.3729 26.4806 22.7858C23.0028 21.2614 19.0714 22.3094 16.6352 25.204C15.1689 22.5606 12.1237 20.9335 9.23832 20.4829C8.8332 20.4197 5.91162 20.2402 5.90286 20.4138C5.9353 19.7638 5.86805 19.1084 5.76458 18.4677C5.37982 16.0884 4.03256 14.0729 1.81942 13.0782C4.5144 11.9985 6.17491 9.54387 5.68076 6.70066C8.29998 8.10332 11.3205 6.62987 13.1913 4.48752C13.9492 5.23952 15.0277 5.67329 16.0698 5.77961C18.6658 6.0448 20.9921 4.39802 22.785 2.61533C22.5556 3.7045 22.4985 4.85002 22.6069 5.94085C22.875 8.63513 24.6522 10.4157 27.2913 10.885C28.0608 11.0218 28.8654 11.0398 29.6437 10.9955C29.9707 10.9768 30.3289 10.8966 30.4712 10.8064C30.3706 10.8696 30.2733 10.938 30.1762 11.0064Z" fill="black"/>
<path d="M2.68794 16.1782C1.91202 16.4335 1.13611 16.6889 0.359954 16.9442C-0.0555879 17.081 0.0722709 17.5851 0.494443 17.4462C1.27036 17.1909 2.04627 16.9354 2.82242 16.6802C3.2382 16.5436 3.11034 16.0395 2.68794 16.1782Z" fill="#1F1D1E"/>
<path d="M3.81493 9.35334C2.76957 8.44862 1.72444 7.54414 0.679072 6.63942C0.46692 6.45568 -0.178768 6.73223 0.0473534 6.92781C1.09272 7.83253 2.13785 8.73702 3.18322 9.64174C3.39537 9.82548 4.04082 9.54892 3.81493 9.35334Z" fill="#1F1D1E"/>
<path d="M10.8921 22.3231C9.70276 23.9007 8.51367 25.4784 7.32435 27.0558C7.16737 27.2641 7.84194 27.1763 7.95228 27.0297C9.1416 25.4521 10.3307 23.8744 11.52 22.297C11.6772 22.0889 11.0024 22.1768 10.8921 22.3231Z" fill="#1F1D1E"/>
<path d="M10.2813 5.64758C9.58752 4.26102 8.894 2.87469 8.20025 1.48813C8.06624 1.22033 7.39379 1.4313 7.51407 1.67187C8.20783 3.05843 8.90134 4.44476 9.5951 5.83132C9.72911 6.09935 10.4018 5.88838 10.2813 5.64758Z" fill="#1F1D1E"/>
<path d="M20.3087 23.9904C20.7268 25.2626 21.145 26.5346 21.5631 27.8068C21.6214 27.9841 22.3023 27.7841 22.2493 27.6231C21.8311 26.3509 21.413 25.0789 20.9948 23.8067C20.9366 23.6293 20.2556 23.8292 20.3087 23.9904Z" fill="#1F1D1E"/>
<path d="M27.2291 17.5131C28.668 17.734 30.1067 17.9552 31.5455 18.1761C31.9005 18.2305 32.2365 17.7212 31.7759 17.6504C30.337 17.4295 28.8984 17.2084 27.4595 16.9875C27.1046 16.933 26.7686 17.4423 27.2291 17.5131Z" fill="#1F1D1E"/>
<path d="M25.2917 7.5982C26.5236 6.79979 27.7558 6.00138 28.9878 5.20298C29.2698 5.02018 28.5819 5.11774 28.4652 5.19351C27.2333 5.99192 26.0011 6.79033 24.7691 7.58874C24.4871 7.77153 25.1752 7.67373 25.2917 7.5982Z" fill="#1F1D1E"/>
<path d="M17.2371 3.925C17.5421 2.68454 17.8471 1.44382 18.152 0.203355C18.1911 0.0442412 17.5177 0.145585 17.4746 0.321273C17.1697 1.56174 16.8647 2.80245 16.5597 4.04292C16.5204 4.20227 17.1938 4.10069 17.2371 3.925Z" fill="#1F1D1E"/>
<path d="M12.8115 5.80458C11.3802 7.61923 9.11564 8.63027 6.82081 8.01654C6.72136 7.99002 6.17157 8.07858 6.19359 8.23319C6.4718 10.1785 5.52351 12.1045 3.81068 13.0937C3.52891 13.2564 4.21746 13.1558 4.32993 13.0907C6.01648 12.1168 7.04977 10.3239 6.91576 8.39893C9.38794 8.76925 11.9657 7.60265 13.4861 5.67482C13.5116 5.64239 12.9339 5.64925 12.8115 5.80458Z" fill="#1F1D1E"/>
</svg>
