<svg width="361" height="186" viewBox="0 0 361 186" fill="none" xmlns="http://www.w3.org/2000/svg">
<path d="M0 102.997C0 63.2326 32.2355 30.9971 72 30.9971H289C328.764 30.9971 361 63.2326 361 102.997C361 142.762 328.764 174.997 289 174.997H72C32.2355 174.997 0 142.762 0 102.997Z" fill="#8A80E2"/>
<path d="M6 102.997C6 66.5463 35.5492 36.9971 72 36.9971H288C324.451 36.9971 354 66.5463 354 102.997C354 139.448 324.451 168.997 288 168.997H72C35.5492 168.997 6 139.448 6 102.997Z" fill="#FBABD0"/>
<path fill-rule="evenodd" clip-rule="evenodd" d="M288 37.9971H72C36.1015 37.9971 7 67.0986 7 102.997C7 138.896 36.1015 167.997 72 167.997H288C323.898 167.997 353 138.896 353 102.997C353 67.0986 323.898 37.9971 288 37.9971ZM72 36.9971C35.5492 36.9971 6 66.5463 6 102.997C6 139.448 35.5492 168.997 72 168.997H288C324.451 168.997 354 139.448 354 102.997C354 66.5463 324.451 36.9971 288 36.9971H72Z" fill="black"/>
<path d="M147.169 121.165C148.174 117.187 153.826 117.187 154.831 121.165L157.662 132.376C158.265 134.764 160.882 136.024 163.125 135.007L173.652 130.231C177.388 128.536 180.912 132.953 178.43 136.219L171.429 145.433C169.939 147.392 170.585 150.222 172.777 151.342L183.082 156.604C186.735 158.469 185.477 163.977 181.376 164.072L169.815 164.34C167.353 164.397 165.543 166.667 166.035 169.079L168.346 180.414C169.166 184.434 164.074 186.885 161.443 183.737L154.032 174.867C152.453 172.977 149.547 172.977 147.968 174.867L140.557 183.737C137.926 186.885 132.834 184.434 133.654 180.414L135.965 169.079C136.457 166.667 134.647 164.397 132.185 164.34L120.624 164.072C116.523 163.977 115.265 158.469 118.918 156.604L129.223 151.342C131.415 150.222 132.061 147.392 130.572 145.433L123.57 136.219C121.088 132.953 124.612 128.536 128.348 130.231L138.875 135.007C141.118 136.024 143.735 134.764 144.338 132.376L147.169 121.165Z" fill="#FFF172"/>
<path fill-rule="evenodd" clip-rule="evenodd" d="M157.177 132.498L154.346 121.288C153.468 117.813 148.532 117.813 147.654 121.288L144.823 132.498C144.143 135.188 141.195 136.608 138.669 135.462L128.141 130.686C124.878 129.206 121.8 133.064 123.968 135.917L130.97 145.13C132.647 147.338 131.92 150.526 129.45 151.787L119.146 157.049C115.955 158.678 117.053 163.49 120.635 163.572L132.197 163.84C134.97 163.904 137.01 166.461 136.455 169.179L134.144 180.514C133.427 184.025 137.875 186.166 140.173 183.417L147.584 174.546C149.364 172.417 152.636 172.417 154.416 174.546L161.827 183.416C164.125 186.166 168.573 184.025 167.857 180.514L165.545 169.179C164.991 166.461 167.03 163.904 169.803 163.84L181.365 163.572C184.947 163.49 186.045 158.678 182.854 157.049L172.55 151.787C170.08 150.526 169.353 147.338 171.03 145.13L178.032 135.917C180.2 133.064 177.122 129.206 173.859 130.686L163.331 135.462C160.805 136.608 157.857 135.188 157.177 132.498ZM154.831 121.165C153.826 117.187 148.174 117.187 147.169 121.165L144.338 132.376C143.735 134.764 141.118 136.024 138.875 135.007L128.348 130.231C124.612 128.536 121.088 132.953 123.57 136.219L130.572 145.433C132.061 147.392 131.415 150.222 129.223 151.342L118.918 156.604C115.265 158.469 116.523 163.977 120.624 164.072L132.185 164.34C134.647 164.397 136.457 166.667 135.965 169.079L133.654 180.414C132.834 184.434 137.926 186.885 140.557 183.737L147.968 174.867C149.547 172.977 152.453 172.977 154.032 174.867L161.443 183.737C164.074 186.885 169.166 184.434 168.346 180.414L166.035 169.079C165.543 166.667 167.353 164.397 169.815 164.34L181.376 164.072C185.477 163.977 186.735 158.469 183.082 156.604L172.777 151.342C170.585 150.222 169.939 147.392 171.429 145.433L178.43 136.219C180.912 132.953 177.388 128.536 173.652 130.231L163.125 135.007C160.882 136.024 158.265 134.764 157.662 132.376L154.831 121.165Z" fill="black"/>
<path d="M44.6398 12.6784L53.9847 24.8062L54.1143 24.9743L54.2843 24.8473L73.6877 10.3612L63.8875 25.8323L63.5959 26.2927L64.1235 26.1563L91.307 19.1259L67.5389 30.8745L66.9211 31.1799L67.6028 31.2809L90.3012 34.6429L63.1599 37.4248L62.8158 37.46L62.9991 37.7533L70.8109 50.2511L52.8818 42.3897L52.7224 42.3198L52.6206 42.461L41.1637 58.3352L41.5502 43.602L41.5593 43.2562L41.2449 43.4005L16.4482 54.7811L34.2982 40.3623L34.8343 39.9293L34.147 39.9798L7.70498 41.9224L34.6945 34.1809L35.2184 34.0306L34.7334 33.782L18.4364 25.427L42.5074 28.0587L42.7184 28.0817L42.7447 27.8711L44.6398 12.6784Z" fill="#679BF7" stroke="black" stroke-width="0.430983"/>
<path fill-rule="evenodd" clip-rule="evenodd" d="M56.3481 59.2252L56.3071 59.2364C56.3139 59.2345 56.3207 59.2326 56.3276 59.2308C56.3344 59.2289 56.3412 59.227 56.3481 59.2252ZM68.321 31.5439L31.94 41.4642C31.532 32.6275 37.2716 24.3753 46.1622 21.951C55.0528 19.5267 64.1868 23.7232 68.321 31.5439Z" fill="#FFF172"/>
<path fill-rule="evenodd" clip-rule="evenodd" d="M68.321 31.5439C68.2519 31.4132 68.1814 31.2835 68.1095 31.1548C63.8816 23.5848 54.9042 19.5672 46.1622 21.951C37.4202 24.3347 31.7247 32.3533 31.9247 41.0217C31.9281 41.169 31.9332 41.3165 31.94 41.4642L68.321 31.5439ZM32.3534 40.9048L67.6808 31.2717C63.5258 23.9309 54.7861 20.0461 46.2755 22.3668C37.765 24.6874 32.207 32.4709 32.3534 40.9048Z" fill="black"/>
<path d="M328.157 106.445C326.621 106.445 325.245 106.21 324.029 105.741C322.813 105.25 321.768 104.546 320.893 103.629C320.04 102.69 319.379 101.549 318.909 100.205C318.461 98.8394 318.237 97.282 318.237 95.5327C318.237 93.0367 318.675 90.978 319.549 89.3567C320.424 87.714 321.619 86.4874 323.133 85.6767C324.669 84.8447 326.397 84.4287 328.317 84.4287C329.811 84.4287 331.165 84.674 332.381 85.1647C333.597 85.634 334.632 86.338 335.485 87.2767C336.36 88.194 337.032 89.346 337.501 90.7327C337.971 92.098 338.205 93.666 338.205 95.4367C338.205 97.25 337.971 98.8394 337.501 100.205C337.032 101.57 336.349 102.722 335.453 103.661C334.579 104.578 333.523 105.271 332.285 105.741C331.048 106.21 329.672 106.445 328.157 106.445ZM328.285 102.765C329.416 102.765 330.365 102.487 331.133 101.933C331.901 101.378 332.488 100.578 332.893 99.5327C333.299 98.4874 333.501 97.2074 333.501 95.6927C333.501 94.114 333.288 92.77 332.861 91.6607C332.456 90.5514 331.859 89.7087 331.069 89.1327C330.28 88.5354 329.32 88.2367 328.189 88.2367C327.08 88.2367 326.131 88.5247 325.341 89.1007C324.573 89.6554 323.976 90.466 323.549 91.5327C323.144 92.5994 322.941 93.922 322.941 95.5007C322.941 96.6527 323.059 97.6874 323.293 98.6047C323.549 99.5007 323.901 100.258 324.349 100.877C324.797 101.495 325.352 101.965 326.013 102.285C326.675 102.605 327.432 102.765 328.285 102.765Z" fill="#FFF172" fill-opacity="0.5"/>
<path d="M323.842 106.204L323.842 106.204L323.849 106.207C325.132 106.702 326.571 106.945 328.157 106.945C329.724 106.945 331.161 106.702 332.463 106.208C333.767 105.714 334.887 104.98 335.815 104.006C336.766 103.009 337.484 101.793 337.974 100.367C338.465 98.9382 338.705 97.2918 338.705 95.4367C338.705 93.6233 338.465 91.999 337.975 90.5713C337.486 89.1289 336.781 87.9126 335.851 86.936C334.946 85.9413 333.848 85.1954 332.565 84.6996C331.283 84.1828 329.865 83.9287 328.317 83.9287C326.323 83.9287 324.512 84.3614 322.896 85.2365C321.288 86.0976 320.026 87.399 319.109 89.1205C318.184 90.8359 317.737 92.9825 317.737 95.5327C317.737 97.3239 317.967 98.9354 318.434 100.361L318.434 100.361L318.437 100.37C318.926 101.769 319.62 102.971 320.523 103.965L320.523 103.965L320.531 103.974C321.457 104.944 322.563 105.688 323.842 106.204ZM332.392 91.8323L332.392 91.8323L332.395 91.8402C332.793 92.8769 333.001 94.1564 333.001 95.6927C333.001 97.1659 332.804 98.3806 332.427 99.3519C332.05 100.324 331.517 101.039 330.841 101.527C330.173 102.009 329.332 102.265 328.285 102.265C327.495 102.265 326.814 102.117 326.231 101.835C325.647 101.552 325.156 101.138 324.754 100.583C324.348 100.023 324.019 99.323 323.776 98.474C323.555 97.6064 323.441 96.6167 323.441 95.5007C323.441 93.9632 323.639 92.7065 324.015 91.7143C324.414 90.7189 324.959 89.9938 325.634 89.5061L325.634 89.5061L325.636 89.5046C326.328 88.9993 327.171 88.7367 328.189 88.7367C329.227 88.7367 330.077 89.009 330.768 89.5314L330.768 89.5315L330.775 89.5366C331.468 90.043 332.013 90.7964 332.392 91.8323Z" stroke="black" stroke-opacity="0.8"/>
<path d="M299.95 105.997V84.877H304.59V105.997H299.95ZM303.15 105.997V102.253H316.238V105.997H303.15ZM303.15 97.037V93.613H314.638V97.037H303.15ZM303.15 88.589V84.877H316.174V88.589H303.15Z" fill="#FFF172" fill-opacity="0.5"/>
<path d="M299.45 105.997V106.497H299.95H302.65H303.15H304.59H305.09H316.238H316.738V105.997V102.253V101.753H316.238H305.09V97.537H314.638H315.138V97.037V93.613V93.113H314.638H305.09V89.089H316.174H316.674V88.589V84.877V84.377H316.174H305.09H304.59H303.15H302.65H299.95H299.45V84.877V105.997Z" stroke="black" stroke-opacity="0.8"/>
<path d="M280.134 105.997V102.253H286.278C287.473 102.253 288.465 101.997 289.254 101.485C290.044 100.952 290.641 100.184 291.046 99.181C291.452 98.1783 291.654 96.9516 291.654 95.501C291.654 94.3063 291.526 93.2823 291.27 92.429C291.014 91.5543 290.63 90.8396 290.118 90.285C289.628 89.7303 288.998 89.3143 288.23 89.037C287.484 88.7596 286.598 88.621 285.574 88.621H280.134V84.877H285.414C287.974 84.877 290.065 85.293 291.686 86.125C293.308 86.957 294.502 88.1516 295.27 89.709C296.038 91.245 296.422 93.0903 296.422 95.245C296.422 96.8663 296.23 98.2743 295.846 99.469C295.462 100.664 294.94 101.677 294.278 102.509C293.638 103.341 292.892 104.013 292.038 104.525C291.185 105.037 290.278 105.41 289.318 105.645C288.358 105.88 287.388 105.997 286.406 105.997H280.134ZM277.926 105.997V84.877H282.534V105.997H277.926Z" fill="#FFF172" fill-opacity="0.5"/>
<path d="M295.27 89.709L295.717 89.4853C295.718 89.4857 295.718 89.486 295.718 89.4864C296.528 91.107 296.922 93.0324 296.922 95.245C296.922 96.9039 296.726 98.3658 296.322 99.622C295.924 100.862 295.376 101.931 294.672 102.817C293.997 103.694 293.204 104.408 292.296 104.954C291.399 105.491 290.446 105.884 289.437 106.131C288.438 106.375 287.428 106.497 286.406 106.497H283.034H282.534H280.134H279.634H277.926H277.426V105.997V84.877V84.377H277.926H279.634H283.034V84.877H285.414C287.974 84.877 290.065 85.293 291.686 86.125C293.308 86.957 294.502 88.1516 295.27 89.709ZM295.27 89.709C296.038 91.245 296.422 93.0903 296.422 95.245C296.422 96.8663 296.23 98.2743 295.846 99.469C295.462 100.664 294.94 101.677 294.278 102.509L295.27 89.709ZM286.278 101.753H283.034V89.121H285.574C286.555 89.121 287.379 89.254 288.056 89.5057L288.056 89.5057L288.06 89.5072C288.758 89.7591 289.314 90.1306 289.744 90.6162L289.744 90.6163L289.751 90.6241C290.201 91.1115 290.552 91.7536 290.79 92.5694L290.79 92.5694L290.791 92.5726C291.03 93.3666 291.154 94.3395 291.154 95.501C291.154 96.908 290.957 98.067 290.583 98.9936C290.21 99.9152 289.672 100.598 288.978 101.068C288.29 101.513 287.4 101.753 286.278 101.753Z" stroke="black" stroke-opacity="0.8"/>
<path d="M268.872 105.997V84.877H273.576V105.997H268.872Z" fill="#FFF172" fill-opacity="0.5"/>
<path d="M268.372 105.997V106.497H268.872H273.576H274.076V105.997V84.877V84.377H273.576H268.872H268.372V84.877V105.997Z" stroke="black" stroke-opacity="0.8"/>
<path d="M252.814 105.997L245.838 84.877H250.862L255.854 102.093H256.27L261.294 84.877H266.254L259.246 105.997H252.814Z" fill="#FFF172" fill-opacity="0.5"/>
<path d="M252.339 106.154L252.452 106.497H252.814H259.246H259.607L259.72 106.154L266.728 85.0344L266.947 84.377H266.254H261.294H260.919L260.814 84.7369L256.063 101.018L251.342 84.7377L251.238 84.377H250.862H245.838H245.146L245.363 85.0338L252.339 106.154Z" stroke="black" stroke-opacity="0.8"/>
<path d="M220.988 105.997V84.877H225.628V105.997H220.988ZM224.188 105.997V102.253H237.276V105.997H224.188ZM224.188 97.037V93.613H235.676V97.037H224.188ZM224.188 88.589V84.877H237.212V88.589H224.188Z" fill="#FFF172" fill-opacity="0.5"/>
<path d="M220.488 105.997V106.497H220.988H223.688H224.188H225.628H226.128H237.276H237.776V105.997V102.253V101.753H237.276H226.128V97.537H235.676H236.176V97.037V93.613V93.113H235.676H226.128V89.089H237.212H237.712V88.589V84.877V84.377H237.212H226.128H225.628H224.188H223.688H220.988H220.488V84.877V105.997Z" stroke="black" stroke-opacity="0.8"/>
<path d="M199.339 105.997V84.877H203.947V94.317C205.035 93.869 206.048 93.3036 206.987 92.621C207.947 91.917 208.8 91.1383 209.547 90.285C210.294 89.4316 210.934 88.5463 211.467 87.629C212 86.7116 212.384 85.7943 212.619 84.877H217.899C217.6 85.9223 217.142 86.9676 216.523 88.013C215.926 89.037 215.211 90.0076 214.379 90.925C213.547 91.8423 212.662 92.6636 211.723 93.389C210.806 94.093 209.878 94.6476 208.939 95.053V95.533C209.92 95.533 210.795 95.6503 211.563 95.885C212.352 96.0983 213.046 96.4503 213.643 96.941C214.262 97.4103 214.806 97.997 215.275 98.701C215.744 99.405 216.16 100.248 216.523 101.229L218.219 105.997H213.003L211.883 102.157C211.584 101.112 211.19 100.28 210.699 99.661C210.208 99.021 209.579 98.5623 208.811 98.285C208.043 97.9863 207.04 97.837 205.803 97.837H203.947V105.997H199.339Z" fill="#FFF172" fill-opacity="0.5"/>
<path d="M198.839 105.997V106.497H199.339H203.947H204.447V105.997V98.337H205.803C207.006 98.337 207.941 98.4831 208.63 98.751L208.63 98.7511L208.641 98.7552C209.32 99.0005 209.87 99.4021 210.302 99.9652L210.302 99.9652L210.307 99.9717C210.745 100.524 211.115 101.29 211.402 102.294L211.403 102.297L212.523 106.137L212.628 106.497H213.003H218.219H218.927L218.69 105.829L216.994 101.061L216.994 101.061L216.992 101.056C216.619 100.046 216.186 99.1667 215.691 98.4236C215.195 97.6802 214.616 97.0533 213.953 96.5484C213.301 96.0151 212.548 95.6345 211.701 95.4044C211.183 95.2466 210.624 95.1401 210.027 95.083C210.703 94.7236 211.369 94.2907 212.027 93.7856L212.029 93.7846C212.992 93.0405 213.898 92.199 214.749 91.2609C215.603 90.3193 216.338 89.3212 216.954 88.2664C217.591 87.1889 218.068 86.1048 218.38 85.0143L218.562 84.377H217.899H212.619H212.231L212.134 84.753C211.913 85.6207 211.548 86.4954 211.035 87.3776C210.518 88.2654 209.898 89.1249 209.171 89.9557C208.449 90.7799 207.624 91.5339 206.692 92.2172C205.987 92.7295 205.239 93.1734 204.447 93.5491V84.877V84.377H203.947H199.339H198.839V84.877V105.997Z" stroke="black" stroke-opacity="0.8"/>
<path d="M175.555 105.997L182.787 84.877H189.507L196.739 105.997H191.747L186.403 88.525H185.923L180.547 105.997H175.555ZM179.619 101.837V98.701H193.347V101.837H179.619Z" fill="#FFF172" fill-opacity="0.5"/>
<path d="M175.082 105.835L174.855 106.497H175.555H180.547H180.916L181.025 106.144L182.196 102.337H190.105L191.269 106.143L191.377 106.497H191.747H196.739H197.439L197.212 105.835L189.98 84.715L189.864 84.377H189.507H182.787H182.43L182.314 84.715L175.082 105.835ZM186.162 89.4474L188.84 98.201H183.469L186.162 89.4474Z" stroke="black" stroke-opacity="0.8"/>
<path d="M147.573 105.997V84.877H154.517L160.405 100.781H160.565L166.325 84.877H172.949V105.997H168.565L168.853 89.549H168.501L162.101 105.997H158.261L151.957 89.549H151.605L151.893 105.997H147.573Z" fill="#FFF172" fill-opacity="0.5"/>
<path d="M147.073 105.997V106.497H147.573H151.893H152.402L152.393 105.988L152.138 91.4178L157.794 106.176L157.917 106.497H158.261H162.101H162.443L162.567 106.178L168.32 91.3913L168.065 105.988L168.056 106.497H168.565H172.949H173.449V105.997V84.877V84.377H172.949H166.325H165.974L165.855 84.7067L160.48 99.5454L154.986 84.7034L154.865 84.377H154.517H147.573H147.073V84.877V105.997Z" stroke="black" stroke-opacity="0.8"/>
<path d="M326.157 106.445C324.621 106.445 323.245 106.21 322.029 105.741C320.813 105.25 319.768 104.546 318.893 103.629C318.04 102.69 317.379 101.549 316.909 100.205C316.461 98.8394 316.237 97.282 316.237 95.5327C316.237 93.0367 316.675 90.978 317.549 89.3567C318.424 87.714 319.619 86.4874 321.133 85.6767C322.669 84.8447 324.397 84.4287 326.317 84.4287C327.811 84.4287 329.165 84.674 330.381 85.1647C331.597 85.634 332.632 86.338 333.485 87.2767C334.36 88.194 335.032 89.346 335.501 90.7327C335.971 92.098 336.205 93.666 336.205 95.4367C336.205 97.25 335.971 98.8394 335.501 100.205C335.032 101.57 334.349 102.722 333.453 103.661C332.579 104.578 331.523 105.271 330.285 105.741C329.048 106.21 327.672 106.445 326.157 106.445ZM326.285 102.765C327.416 102.765 328.365 102.487 329.133 101.933C329.901 101.378 330.488 100.578 330.893 99.5327C331.299 98.4874 331.501 97.2074 331.501 95.6927C331.501 94.114 331.288 92.77 330.861 91.6607C330.456 90.5514 329.859 89.7087 329.069 89.1327C328.28 88.5354 327.32 88.2367 326.189 88.2367C325.08 88.2367 324.131 88.5247 323.341 89.1007C322.573 89.6554 321.976 90.466 321.549 91.5327C321.144 92.5994 320.941 93.922 320.941 95.5007C320.941 96.6527 321.059 97.6874 321.293 98.6047C321.549 99.5007 321.901 100.258 322.349 100.877C322.797 101.495 323.352 101.965 324.013 102.285C324.675 102.605 325.432 102.765 326.285 102.765Z" fill="#FFF172"/>
<path d="M321.842 106.204L321.842 106.204L321.849 106.207C323.132 106.702 324.571 106.945 326.157 106.945C327.724 106.945 329.161 106.702 330.463 106.208C331.767 105.714 332.887 104.98 333.815 104.006C334.766 103.009 335.484 101.793 335.974 100.367C336.465 98.9382 336.705 97.2918 336.705 95.4367C336.705 93.6233 336.465 91.999 335.975 90.5713C335.486 89.1289 334.781 87.9126 333.851 86.936C332.946 85.9413 331.848 85.1954 330.565 84.6996C329.283 84.1828 327.865 83.9287 326.317 83.9287C324.323 83.9287 322.512 84.3614 320.896 85.2365C319.288 86.0976 318.026 87.399 317.109 89.1205C316.184 90.8359 315.737 92.9825 315.737 95.5327C315.737 97.3239 315.967 98.9354 316.434 100.361L316.434 100.361L316.437 100.37C316.926 101.769 317.62 102.971 318.523 103.965L318.523 103.965L318.531 103.974C319.457 104.944 320.563 105.688 321.842 106.204ZM330.392 91.8323L330.392 91.8323L330.395 91.8402C330.793 92.8769 331.001 94.1564 331.001 95.6927C331.001 97.1659 330.804 98.3806 330.427 99.3519C330.05 100.324 329.517 101.039 328.841 101.527C328.173 102.009 327.332 102.265 326.285 102.265C325.495 102.265 324.814 102.117 324.231 101.835C323.647 101.552 323.156 101.138 322.754 100.583C322.348 100.023 322.019 99.323 321.776 98.474C321.555 97.6064 321.441 96.6167 321.441 95.5007C321.441 93.9632 321.639 92.7065 322.015 91.7143C322.414 90.7189 322.959 89.9938 323.634 89.5061L323.634 89.5061L323.636 89.5046C324.328 88.9993 325.171 88.7367 326.189 88.7367C327.227 88.7367 328.077 89.009 328.768 89.5314L328.768 89.5315L328.775 89.5366C329.468 90.043 330.013 90.7964 330.392 91.8323Z" stroke="black" stroke-opacity="0.8"/>
<path d="M297.95 105.997V84.877H302.59V105.997H297.95ZM301.15 105.997V102.253H314.238V105.997H301.15ZM301.15 97.037V93.613H312.638V97.037H301.15ZM301.15 88.589V84.877H314.174V88.589H301.15Z" fill="#FFF172"/>
<path d="M297.45 105.997V106.497H297.95H300.65H301.15H302.59H303.09H314.238H314.738V105.997V102.253V101.753H314.238H303.09V97.537H312.638H313.138V97.037V93.613V93.113H312.638H303.09V89.089H314.174H314.674V88.589V84.877V84.377H314.174H303.09H302.59H301.15H300.65H297.95H297.45V84.877V105.997Z" stroke="black" stroke-opacity="0.8"/>
<path d="M278.134 105.997V102.253H284.278C285.473 102.253 286.465 101.997 287.254 101.485C288.044 100.952 288.641 100.184 289.046 99.181C289.452 98.1783 289.654 96.9516 289.654 95.501C289.654 94.3063 289.526 93.2823 289.27 92.429C289.014 91.5543 288.63 90.8396 288.118 90.285C287.628 89.7303 286.998 89.3143 286.23 89.037C285.484 88.7596 284.598 88.621 283.574 88.621H278.134V84.877H283.414C285.974 84.877 288.065 85.293 289.686 86.125C291.308 86.957 292.502 88.1516 293.27 89.709C294.038 91.245 294.422 93.0903 294.422 95.245C294.422 96.8663 294.23 98.2743 293.846 99.469C293.462 100.664 292.94 101.677 292.278 102.509C291.638 103.341 290.892 104.013 290.038 104.525C289.185 105.037 288.278 105.41 287.318 105.645C286.358 105.88 285.388 105.997 284.406 105.997H278.134ZM275.926 105.997V84.877H280.534V105.997H275.926Z" fill="#FFF172"/>
<path d="M293.27 89.709L293.717 89.4853C293.718 89.4857 293.718 89.486 293.718 89.4864C294.528 91.107 294.922 93.0324 294.922 95.245C294.922 96.9039 294.726 98.3658 294.322 99.622C293.924 100.862 293.376 101.931 292.672 102.817C291.997 103.694 291.204 104.408 290.296 104.954C289.399 105.491 288.446 105.884 287.437 106.131C286.438 106.375 285.428 106.497 284.406 106.497H281.034H280.534H278.134H277.634H275.926H275.426V105.997V84.877V84.377H275.926H277.634H281.034V84.877H283.414C285.974 84.877 288.065 85.293 289.686 86.125C291.308 86.957 292.502 88.1516 293.27 89.709ZM293.27 89.709C294.038 91.245 294.422 93.0903 294.422 95.245C294.422 96.8663 294.23 98.2743 293.846 99.469C293.462 100.664 292.94 101.677 292.278 102.509L293.27 89.709ZM284.278 101.753H281.034V89.121H283.574C284.555 89.121 285.379 89.254 286.056 89.5057L286.056 89.5057L286.06 89.5072C286.758 89.7591 287.314 90.1306 287.744 90.6162L287.744 90.6163L287.751 90.6241C288.201 91.1115 288.552 91.7536 288.79 92.5694L288.79 92.5694L288.791 92.5726C289.03 93.3666 289.154 94.3395 289.154 95.501C289.154 96.908 288.957 98.067 288.583 98.9936C288.21 99.9152 287.672 100.598 286.978 101.068C286.29 101.513 285.4 101.753 284.278 101.753Z" stroke="black" stroke-opacity="0.8"/>
<path d="M266.872 105.997V84.877H271.576V105.997H266.872Z" fill="#FFF172"/>
<path d="M266.372 105.997V106.497H266.872H271.576H272.076V105.997V84.877V84.377H271.576H266.872H266.372V84.877V105.997Z" stroke="black" stroke-opacity="0.8"/>
<path d="M250.814 105.997L243.838 84.877H248.862L253.854 102.093H254.27L259.294 84.877H264.254L257.246 105.997H250.814Z" fill="#FFF172"/>
<path d="M250.339 106.154L250.452 106.497H250.814H257.246H257.607L257.72 106.154L264.728 85.0344L264.947 84.377H264.254H259.294H258.919L258.814 84.7369L254.063 101.018L249.342 84.7377L249.238 84.377H248.862H243.838H243.146L243.363 85.0338L250.339 106.154Z" stroke="black" stroke-opacity="0.8"/>
<path d="M218.988 105.997V84.877H223.628V105.997H218.988ZM222.188 105.997V102.253H235.276V105.997H222.188ZM222.188 97.037V93.613H233.676V97.037H222.188ZM222.188 88.589V84.877H235.212V88.589H222.188Z" fill="#FFF172"/>
<path d="M218.488 105.997V106.497H218.988H221.688H222.188H223.628H224.128H235.276H235.776V105.997V102.253V101.753H235.276H224.128V97.537H233.676H234.176V97.037V93.613V93.113H233.676H224.128V89.089H235.212H235.712V88.589V84.877V84.377H235.212H224.128H223.628H222.188H221.688H218.988H218.488V84.877V105.997Z" stroke="black" stroke-opacity="0.8"/>
<path d="M197.339 105.997V84.877H201.947V94.317C203.035 93.869 204.048 93.3036 204.987 92.621C205.947 91.917 206.8 91.1383 207.547 90.285C208.294 89.4316 208.934 88.5463 209.467 87.629C210 86.7116 210.384 85.7943 210.619 84.877H215.899C215.6 85.9223 215.142 86.9676 214.523 88.013C213.926 89.037 213.211 90.0076 212.379 90.925C211.547 91.8423 210.662 92.6636 209.723 93.389C208.806 94.093 207.878 94.6476 206.939 95.053V95.533C207.92 95.533 208.795 95.6503 209.563 95.885C210.352 96.0983 211.046 96.4503 211.643 96.941C212.262 97.4103 212.806 97.997 213.275 98.701C213.744 99.405 214.16 100.248 214.523 101.229L216.219 105.997H211.003L209.883 102.157C209.584 101.112 209.19 100.28 208.699 99.661C208.208 99.021 207.579 98.5623 206.811 98.285C206.043 97.9863 205.04 97.837 203.803 97.837H201.947V105.997H197.339Z" fill="#FFF172"/>
<path d="M196.839 105.997V106.497H197.339H201.947H202.447V105.997V98.337H203.803C205.006 98.337 205.941 98.4831 206.63 98.751L206.63 98.7511L206.641 98.7552C207.32 99.0005 207.87 99.4021 208.302 99.9652L208.302 99.9652L208.307 99.9717C208.745 100.524 209.115 101.29 209.402 102.294L209.403 102.297L210.523 106.137L210.628 106.497H211.003H216.219H216.927L216.69 105.829L214.994 101.061L214.994 101.061L214.992 101.056C214.619 100.046 214.186 99.1667 213.691 98.4236C213.195 97.6802 212.616 97.0533 211.953 96.5484C211.301 96.0151 210.548 95.6345 209.701 95.4044C209.183 95.2466 208.624 95.1401 208.027 95.083C208.703 94.7236 209.369 94.2907 210.027 93.7856L210.029 93.7846C210.992 93.0405 211.898 92.199 212.749 91.2609C213.603 90.3193 214.338 89.3212 214.954 88.2664C215.591 87.1889 216.068 86.1048 216.38 85.0143L216.562 84.377H215.899H210.619H210.231L210.134 84.753C209.913 85.6207 209.548 86.4954 209.035 87.3776C208.518 88.2654 207.898 89.1249 207.171 89.9557C206.449 90.7799 205.624 91.5339 204.692 92.2172C203.987 92.7295 203.239 93.1734 202.447 93.5491V84.877V84.377H201.947H197.339H196.839V84.877V105.997Z" stroke="black" stroke-opacity="0.8"/>
<path d="M173.555 105.997L180.787 84.877H187.507L194.739 105.997H189.747L184.403 88.525H183.923L178.547 105.997H173.555ZM177.619 101.837V98.701H191.347V101.837H177.619Z" fill="#FFF172"/>
<path d="M173.082 105.835L172.855 106.497H173.555H178.547H178.916L179.025 106.144L180.196 102.337H188.105L189.269 106.143L189.377 106.497H189.747H194.739H195.439L195.212 105.835L187.98 84.715L187.864 84.377H187.507H180.787H180.43L180.314 84.715L173.082 105.835ZM184.162 89.4474L186.84 98.201H181.469L184.162 89.4474Z" stroke="black" stroke-opacity="0.8"/>
<path d="M145.573 105.997V84.877H152.517L158.405 100.781H158.565L164.325 84.877H170.949V105.997H166.565L166.853 89.549H166.501L160.101 105.997H156.261L149.957 89.549H149.605L149.893 105.997H145.573Z" fill="#FFF172"/>
<path d="M145.073 105.997V106.497H145.573H149.893H150.402L150.393 105.988L150.138 91.4178L155.794 106.176L155.917 106.497H156.261H160.101H160.443L160.567 106.178L166.32 91.3913L166.065 105.988L166.056 106.497H166.565H170.949H171.449V105.997V84.877V84.377H170.949H164.325H163.974L163.855 84.7067L158.48 99.5454L152.986 84.7034L152.865 84.377H152.517H145.573H145.073V84.877V105.997Z" stroke="black" stroke-opacity="0.8"/>
</svg>
