<svg width="22" height="22" viewBox="0 0 22 22" fill="none" xmlns="http://www.w3.org/2000/svg">
<path d="M19.3142 4.79384C17.8383 4.64717 16.3625 4.53717 14.8775 4.45467V4.44551L14.6758 3.25384C14.5383 2.41051 14.3367 1.14551 12.1917 1.14551H9.79001C7.65418 1.14551 7.45251 2.35551 7.30584 3.24467L7.11335 4.41801C6.26085 4.47301 5.40835 4.52801 4.55585 4.61051L2.68585 4.79384C2.30085 4.83051 2.02585 5.16967 2.06251 5.54551C2.09918 5.92134 2.42918 6.19634 2.81418 6.15967L4.68418 5.97634C9.48751 5.49967 14.3275 5.68301 19.1858 6.16884C19.2133 6.16884 19.2317 6.16884 19.2592 6.16884C19.6075 6.16884 19.91 5.90301 19.9467 5.54551C19.9742 5.16967 19.6992 4.83051 19.3142 4.79384Z" fill="#F2484F"/>
<path d="M17.6275 7.46199C17.4075 7.23283 17.105 7.10449 16.7933 7.10449H5.20667C4.895 7.10449 4.58334 7.23283 4.3725 7.46199C4.16167 7.69116 4.0425 8.00283 4.06084 8.32366L4.62917 17.7287C4.73 19.122 4.85834 20.8637 8.0575 20.8637H13.9425C17.1417 20.8637 17.27 19.1312 17.3708 17.7287L17.9392 8.33283C17.9575 8.00283 17.8383 7.69116 17.6275 7.46199ZM12.5217 16.2712H9.46917C9.09334 16.2712 8.78167 15.9595 8.78167 15.5837C8.78167 15.2078 9.09334 14.8962 9.46917 14.8962H12.5217C12.8975 14.8962 13.2092 15.2078 13.2092 15.5837C13.2092 15.9595 12.8975 16.2712 12.5217 16.2712ZM13.2917 12.6045H8.70834C8.3325 12.6045 8.02084 12.2928 8.02084 11.917C8.02084 11.5412 8.3325 11.2295 8.70834 11.2295H13.2917C13.6675 11.2295 13.9792 11.5412 13.9792 11.917C13.9792 12.2928 13.6675 12.6045 13.2917 12.6045Z" fill="#F2484F"/>
</svg>
