<svg width="34" height="32" viewBox="0 0 34 32" fill="none" xmlns="http://www.w3.org/2000/svg">
<circle cx="17.3809" cy="16" r="15.619" fill="black" stroke="black" stroke-width="0.761905"/>
<circle cx="16.6191" cy="16" r="15.619" fill="#FFF572" stroke="black" stroke-width="0.761905"/>
<path d="M16.2125 20.1475V11.8525C16.2125 11.065 15.88 10.75 15.04 10.75H12.9225C12.0825 10.75 11.75 11.065 11.75 11.8525V20.1475C11.75 20.935 12.0825 21.25 12.9225 21.25H15.04C15.88 21.25 16.2125 20.935 16.2125 20.1475Z" fill="black"/>
<path d="M22.2501 20.1475V11.8525C22.2501 11.065 21.9176 10.75 21.0776 10.75H18.9601C18.1259 10.75 17.7876 11.065 17.7876 11.8525V20.1475C17.7876 20.935 18.1201 21.25 18.9601 21.25H21.0776C21.9176 21.25 22.2501 20.935 22.2501 20.1475Z" fill="black"/>
</svg>
