<svg width="119" height="119" viewBox="0 0 119 119" fill="none" xmlns="http://www.w3.org/2000/svg">
<circle cx="59.3778" cy="59.3778" r="37.0692" fill="#FEE453"/>
<path fill-rule="evenodd" clip-rule="evenodd" d="M71.0003 94.1276C90.1958 87.7048 100.55 66.9371 94.1275 47.7416C87.7047 28.546 66.937 18.1916 47.7415 24.6144C28.5459 31.0371 18.1915 51.8048 24.6143 71.0004C31.037 90.1959 51.8047 100.55 71.0003 94.1276ZM71.2839 94.9753C90.9476 88.3959 101.555 67.1216 94.9752 47.4579C88.3958 27.7942 67.1215 17.1873 47.4578 23.7667C27.7941 30.346 17.1872 51.6203 23.7666 71.284C30.3459 90.9477 51.6202 101.555 71.2839 94.9753Z" fill="black"/>
<path d="M50.4943 50.8142C52.4098 56.5391 52.5502 61.6526 50.8078 62.2356C49.0655 62.8186 46.1002 58.6503 44.1847 52.9254C42.2691 47.2005 42.1288 42.087 43.8711 41.504C45.6135 40.921 48.5788 45.0893 50.4943 50.8142Z" fill="black"/>
<path d="M68.5216 44.7826C70.4372 50.5074 70.4766 55.6547 68.6098 56.2793C66.743 56.904 63.6768 52.7694 61.7613 47.0445C59.8458 41.3196 59.8063 36.1724 61.6731 35.5477C63.5399 34.9231 66.6061 39.0577 68.5216 44.7826Z" fill="black"/>
<path fill-rule="evenodd" clip-rule="evenodd" d="M81.9676 62.501C74.6218 77.4278 55.8454 83.7199 41.4037 76.0668L41.813 75.2747C55.7988 82.6861 74.0389 76.5927 81.1716 62.0989L81.9676 62.501Z" fill="black"/>
<path fill-rule="evenodd" clip-rule="evenodd" d="M41.0196 79.4138C40.307 75.5197 43.0804 73.0837 44.5408 72.3515L44.9301 73.1279C43.6453 73.7722 41.26 75.9017 41.874 79.2575L41.0196 79.4138Z" fill="black"/>
<path fill-rule="evenodd" clip-rule="evenodd" d="M85.1871 64.6355C83.4127 61.0967 79.7317 60.8203 78.1247 61.1143L78.2811 61.9688C79.6949 61.71 82.8815 61.9752 84.4106 65.0248L85.1871 64.6355Z" fill="black"/>
</svg>
