<svg width="17" height="17" viewBox="0 0 17 17" fill="none" xmlns="http://www.w3.org/2000/svg">
<path d="M6.54889 1.66153C7.01758 -0.419121 9.98242 -0.419122 10.4511 1.66153L11.0717 4.41666C11.2415 5.17013 11.8299 5.75854 12.5833 5.92826L15.3385 6.54889C17.4191 7.01758 17.4191 9.98242 15.3385 10.4511L12.5833 11.0717C11.8299 11.2415 11.2415 11.8299 11.0717 12.5833L10.4511 15.3385C9.98242 17.4191 7.01758 17.4191 6.54889 15.3385L5.92826 12.5833C5.75854 11.8299 5.17013 11.2415 4.41666 11.0717L1.66153 10.4511C-0.419121 9.98242 -0.419122 7.01758 1.66153 6.54889L4.41666 5.92826C5.17013 5.75854 5.75854 5.17013 5.92826 4.41666L6.54889 1.66153Z" fill="#8A80E2"/>
</svg>
