<svg width="36" height="37" viewBox="0 0 36 37" fill="none" xmlns="http://www.w3.org/2000/svg">
<rect x="0.5" y="1" width="35" height="35" rx="0.5" fill="white" fill-opacity="0.04"/>
<rect x="0.5" y="1" width="35" height="35" rx="0.5" stroke="#FFAFD4"/>
<path fill-rule="evenodd" clip-rule="evenodd" d="M19.3999 25.4698C19.3999 24.5156 19.3999 23.7568 19.45 23.1446C19.4575 23.0517 19.4663 22.9608 19.4767 22.8718C19.0381 23.0101 18.5726 23.0848 18.0903 23.0848C16.3212 23.0848 14.791 22.085 13.9786 20.6252C13.7906 20.2874 13.912 19.8611 14.2499 19.6731C14.5877 19.4852 15.0139 19.6066 15.2019 19.9444C15.7868 20.9953 16.8681 21.6848 18.0903 21.6848C18.7215 21.6848 19.3112 21.5019 19.8156 21.1824C19.9799 21.0783 20.1353 20.9596 20.28 20.8278C20.6572 20.3411 21.1388 19.9406 21.6932 19.6582C22.1826 19.4088 22.7172 19.3016 23.3441 19.2504C23.9563 19.2004 24.7151 19.2004 25.6693 19.2004H25.6937H27.0946C27.1 18.7576 27.1 18.2634 27.0999 17.7037V17.5671V17.436C27.1001 15.825 27.1002 14.8719 26.8853 14.0699C26.3027 11.8958 24.6045 10.1976 22.4305 9.61507C21.6284 9.40016 20.6754 9.40025 19.0643 9.4004L18.9333 9.40041H17.9737C16.6913 9.40041 15.6931 9.40041 14.8882 9.45531C14.0716 9.51103 13.4031 9.62561 12.789 9.87997C11.2453 10.5194 10.0189 11.7458 9.37948 13.2895C9.12512 13.9036 9.01055 14.5721 8.95483 15.3887C8.89992 16.1935 8.89992 17.1917 8.89992 18.4741V19.4338L8.89991 19.5648C8.89976 21.1759 8.89967 22.1289 9.11459 22.931C9.69713 25.105 11.3953 26.8032 13.5694 27.3858C14.3715 27.6007 15.3245 27.6006 16.9356 27.6004H17.0666H17.2032C18.0775 27.6005 18.7918 27.6005 19.3999 27.5799L19.3686 26.1798L19.3999 26.1787V25.4698ZM20.9718 17.0681C21.5428 17.0681 22.0057 16.6052 22.0057 16.0342C22.0057 15.4633 21.5428 15.0004 20.9718 15.0004C20.4008 15.0004 19.938 15.4633 19.938 16.0342C19.938 16.6052 20.4008 17.0681 20.9718 17.0681ZM15.1564 17.0681C15.7274 17.0681 16.1903 16.6052 16.1903 16.0342C16.1903 15.4633 15.7274 15.0004 15.1564 15.0004C14.5854 15.0004 14.1226 15.4633 14.1226 16.0342C14.1226 16.6052 14.5854 17.0681 15.1564 17.0681Z" fill="#FFAFD4"/>
<path d="M21.3927 27.3382C22.4137 27.0647 23.3489 26.5898 24.1537 25.9579C25.8479 24.7524 26.9823 22.8113 27.0912 20.6006H25.638C24.6789 20.6007 23.9951 20.6021 23.4581 20.6459C22.9177 20.6901 22.5879 20.7737 22.3287 20.9058C21.8018 21.1742 21.3735 21.6026 21.105 22.1295C20.9729 22.3887 20.8893 22.7184 20.8452 23.2588C20.8004 23.8074 20.7998 24.509 20.7998 25.5006V25.8073V27.4627C21.0078 27.4297 21.2038 27.3888 21.3927 27.3382Z" fill="#FFAFD4"/>
</svg>
