<svg width="18" height="18" viewBox="0 0 18 18" fill="none" xmlns="http://www.w3.org/2000/svg">
<path fill-rule="evenodd" clip-rule="evenodd" d="M10.3846 15.8928C10.3846 14.9491 10.3846 14.1987 10.4341 13.5932C10.4416 13.5012 10.4503 13.4114 10.4606 13.3233C10.0268 13.4602 9.56637 13.534 9.08937 13.534C7.33977 13.534 5.82639 12.5452 5.0229 11.1014C4.83694 10.7673 4.95706 10.3458 5.29117 10.1598C5.62527 9.97393 6.04682 10.094 6.23277 10.4281C6.81119 11.4675 7.88067 12.1494 9.08937 12.1494C9.71362 12.1494 10.2969 11.9685 10.7958 11.6525C10.9583 11.5496 11.1119 11.4321 11.255 11.3018C11.6281 10.8205 12.1044 10.4244 12.6527 10.1451C13.1367 9.8984 13.6655 9.79241 14.2855 9.7418C14.891 9.6923 15.6414 9.6923 16.5851 9.6923H16.6092H17.9947C18.0001 9.25442 18.0001 8.76565 18 8.21208V8.07694V7.94734C18.0002 6.354 18.0003 5.41142 17.7877 4.61817C17.2116 2.46794 15.532 0.788469 13.3819 0.212324C12.5886 -0.000227761 11.6461 -0.000137893 10.0527 7.49118e-06L9.92312 1.44237e-05H8.97403C7.70572 1.44237e-05 6.71849 1.4551e-05 5.92248 0.0543191C5.11483 0.109427 4.45368 0.222744 3.84639 0.474307C2.31964 1.10669 1.10669 2.31964 0.474307 3.84639C0.222744 4.45368 0.109427 5.11484 0.0543191 5.92248C1.4551e-05 6.7185 1.44236e-05 7.70573 1.44236e-05 8.97403V9.92312L7.49118e-06 10.0527C-0.000137893 11.6461 -0.000227761 12.5886 0.212324 13.3819C0.788469 15.532 2.46794 17.2116 4.61817 17.7877C5.41142 18.0003 6.354 18.0002 7.94734 18H8.07694H8.21208C9.0767 18.0001 9.7832 18.0001 10.3846 17.9797L10.3537 16.595L10.3846 16.5939V15.8928ZM11.9393 7.58346C12.504 7.58346 12.9617 7.12564 12.9617 6.56093C12.9617 5.99628 12.504 5.53846 11.9393 5.53846C11.3745 5.53846 10.9168 5.99628 10.9168 6.56093C10.9168 7.12564 11.3745 7.58346 11.9393 7.58346ZM6.18777 7.58346C6.75249 7.58346 7.21024 7.12564 7.21024 6.56093C7.21024 5.99628 6.75249 5.53846 6.18777 5.53846C5.62306 5.53846 5.1653 5.99628 5.1653 6.56093C5.1653 7.12564 5.62306 7.58346 6.18777 7.58346Z" fill="#FFAFD4"/>
<path d="M12.3554 17.7417C13.3652 17.4712 14.2901 17.0015 15.0861 16.3766C16.7617 15.1843 17.8836 13.2646 17.9913 11.0781H16.5541C15.6055 11.0782 14.9292 11.0796 14.3981 11.123C13.8636 11.1667 13.5375 11.2493 13.2811 11.38C12.76 11.6455 12.3364 12.0691 12.0709 12.5902C11.9403 12.8466 11.8576 13.1727 11.8139 13.7072C11.7696 14.2497 11.769 14.9436 11.769 15.9243V16.2276V17.8648C11.9747 17.8322 12.1686 17.7918 12.3554 17.7417Z" fill="#FFAFD4"/>
</svg>
