<svg width="17" height="10" viewBox="0 0 17 10" fill="none" xmlns="http://www.w3.org/2000/svg">
<path d="M0.611932 9L3.67131 0.0655307H6.5141L9.57347 9H7.46169L5.201 1.60876H4.99794L2.72372 9H0.611932ZM2.33114 7.24018V5.91355H8.13854V7.24018H2.33114ZM12.2716 9.18952C11.8745 9.18952 11.5225 9.11281 11.2157 8.95939C10.9089 8.79694 10.6697 8.56681 10.4982 8.269C10.3268 7.97118 10.241 7.60117 10.241 7.15896C10.241 6.7709 10.3132 6.44601 10.4576 6.18429C10.611 5.92257 10.8321 5.71049 11.1209 5.54805C11.4097 5.3856 11.7662 5.25023 12.1904 5.14193C12.6145 5.03364 13.0973 4.93888 13.6388 4.85766C13.9276 4.81253 14.1623 4.77192 14.3428 4.73582C14.5323 4.6907 14.6722 4.62301 14.7624 4.53277C14.8527 4.43349 14.8978 4.29361 14.8978 4.11312C14.8978 3.86042 14.8075 3.64383 14.627 3.46334C14.4465 3.28284 14.1623 3.19259 13.7742 3.19259C13.5125 3.19259 13.2688 3.23772 13.0432 3.32797C12.8266 3.41821 12.6371 3.55358 12.4746 3.73408C12.3212 3.91457 12.2084 4.1447 12.1362 4.42447L10.417 3.89652C10.5253 3.52651 10.6787 3.20613 10.8773 2.93539C11.0848 2.66465 11.333 2.43903 11.6218 2.25854C11.9106 2.06902 12.24 1.92913 12.61 1.83889C12.98 1.74864 13.3816 1.70352 13.8148 1.70352C14.5097 1.70352 15.0738 1.81633 15.5069 2.04194C15.9492 2.25854 16.2786 2.60148 16.4952 3.07076C16.7117 3.53102 16.82 4.12665 16.82 4.85766V6.07599C16.82 6.39186 16.8246 6.71223 16.8336 7.03712C16.8516 7.36201 16.8697 7.69142 16.8877 8.02533C16.9148 8.35022 16.9419 8.67511 16.9689 9H15.2497C15.2136 8.77438 15.1775 8.51718 15.1414 8.22839C15.1144 7.93057 15.0918 7.63276 15.0738 7.33494H14.8301C14.7037 7.67788 14.5232 7.98923 14.2886 8.269C14.054 8.54876 13.7652 8.77438 13.4222 8.94585C13.0883 9.1083 12.7048 9.18952 12.2716 9.18952ZM13.0973 7.78166C13.2688 7.78166 13.4403 7.75008 13.6118 7.6869C13.7922 7.62373 13.9637 7.538 14.1262 7.4297C14.2976 7.31238 14.4511 7.16798 14.5864 6.99651C14.7308 6.82504 14.8481 6.63101 14.9384 6.41442L14.9113 5.2773L15.2227 5.34499C15.0602 5.46231 14.8707 5.55707 14.6541 5.62927C14.4375 5.69244 14.2119 5.74208 13.9773 5.77818C13.7516 5.81428 13.526 5.85489 13.3004 5.90001C13.0748 5.94513 12.8717 6.00379 12.6912 6.07599C12.5198 6.14819 12.3799 6.24746 12.2716 6.37381C12.1723 6.49113 12.1227 6.65809 12.1227 6.87468C12.1227 7.15445 12.2129 7.37555 12.3934 7.538C12.5739 7.70044 12.8086 7.78166 13.0973 7.78166Z" fill="#FFF572"/>
</svg>
