<svg width="36" height="37" viewBox="0 0 36 37" fill="none" xmlns="http://www.w3.org/2000/svg">
<rect x="0.5" y="1" width="35" height="35" rx="0.5" fill="white" fill-opacity="0.04"/>
<rect x="0.5" y="1" width="35" height="35" rx="0.5" stroke="#FFF572"/>
<path d="M5.58727 25.5L10.1073 12.3H14.2873L18.7873 25.5H15.6673L12.3473 14.58H12.0473L8.70727 25.5H5.58727ZM8.10727 22.92V20.94H16.6673V22.92H8.10727ZM22.8335 25.78C22.2468 25.78 21.7268 25.6667 21.2735 25.44C20.8202 25.2 20.4668 24.86 20.2135 24.42C19.9602 23.98 19.8335 23.4333 19.8335 22.78C19.8335 22.2067 19.9402 21.7267 20.1535 21.34C20.3802 20.9533 20.7068 20.64 21.1335 20.4C21.5602 20.16 22.0868 19.96 22.7135 19.8C23.3402 19.64 24.0535 19.5 24.8535 19.38C25.2802 19.3133 25.6268 19.2533 25.8935 19.2C26.1735 19.1333 26.3802 19.0333 26.5135 18.9C26.6468 18.7533 26.7135 18.5467 26.7135 18.28C26.7135 17.9067 26.5802 17.5867 26.3135 17.32C26.0468 17.0533 25.6268 16.92 25.0535 16.92C24.6668 16.92 24.3068 16.9867 23.9735 17.12C23.6535 17.2533 23.3735 17.4533 23.1335 17.72C22.9068 17.9867 22.7402 18.3267 22.6335 18.74L20.0935 17.96C20.2535 17.4133 20.4802 16.94 20.7735 16.54C21.0802 16.14 21.4468 15.8067 21.8735 15.54C22.3002 15.26 22.7868 15.0533 23.3335 14.92C23.8802 14.7867 24.4735 14.72 25.1135 14.72C26.1402 14.72 26.9735 14.8867 27.6135 15.22C28.2668 15.54 28.7535 16.0467 29.0735 16.74C29.3935 17.42 29.5535 18.3 29.5535 19.38V21.18C29.5535 21.6467 29.5602 22.12 29.5735 22.6C29.6002 23.08 29.6268 23.5667 29.6535 24.06C29.6935 24.54 29.7335 25.02 29.7735 25.5H27.2335C27.1802 25.1667 27.1268 24.7867 27.0735 24.36C27.0335 23.92 27.0002 23.48 26.9735 23.04H26.6135C26.4268 23.5467 26.1602 24.0067 25.8135 24.42C25.4668 24.8333 25.0402 25.1667 24.5335 25.42C24.0402 25.66 23.4735 25.78 22.8335 25.78ZM24.0535 23.7C24.3068 23.7 24.5602 23.6533 24.8135 23.56C25.0802 23.4667 25.3335 23.34 25.5735 23.18C25.8268 23.0067 26.0535 22.7933 26.2535 22.54C26.4668 22.2867 26.6402 22 26.7735 21.68L26.7335 20L27.1935 20.1C26.9535 20.2733 26.6735 20.4133 26.3535 20.52C26.0335 20.6133 25.7002 20.6867 25.3535 20.74C25.0202 20.7933 24.6868 20.8533 24.3535 20.92C24.0202 20.9867 23.7202 21.0733 23.4535 21.18C23.2002 21.2867 22.9935 21.4333 22.8335 21.62C22.6868 21.7933 22.6135 22.04 22.6135 22.36C22.6135 22.7733 22.7468 23.1 23.0135 23.34C23.2802 23.58 23.6268 23.7 24.0535 23.7Z" fill="#FFF572"/>
</svg>
