<svg width="24" height="24" viewBox="0 0 24 24" fill="none" xmlns="http://www.w3.org/2000/svg">
<rect x="0.5" y="0.5" width="23" height="23" rx="0.5" stroke="white"/>
<path d="M15 19.7232H12.5076L11.8097 17.6296H7.17372L6.47583 19.7232H4L8.071 8.0918H10.9124L15 19.7232ZM9.5 10.7338L7.90483 15.4861H11.0952L9.5 10.7338Z" fill="white"/>
<path d="M13.6263 7.17542C13.4612 6.72007 14.0501 6.37482 14.3668 6.74142L15.5608 8.12396C15.6791 8.26093 15.8697 8.31066 16.0398 8.24893L17.7571 7.62594C18.2125 7.46075 18.5577 8.04973 18.1911 8.36635L16.8086 9.56039C16.6716 9.67869 16.6219 9.86928 16.6836 10.0394L17.3066 11.7567C17.4718 12.2121 16.8828 12.5573 16.5662 12.1907L15.3721 10.8082C15.2538 10.6712 15.0632 10.6215 14.8931 10.6832L13.1758 11.3062C12.7205 11.4714 12.3752 10.8824 12.7418 10.5658L14.1244 9.37173C14.2613 9.25343 14.3111 9.06284 14.2493 8.8927L13.6263 7.17542Z" fill="white"/>
<path d="M16.6083 14.3826C16.5004 14.1034 16.8599 13.8826 17.0602 14.1051L17.8155 14.944C17.8903 15.0272 18.0087 15.0554 18.113 15.0151L19.1661 14.6084C19.4453 14.5005 19.6661 14.86 19.4436 15.0603L18.6047 15.8156C18.5215 15.8904 18.4933 16.0088 18.5336 16.1131L18.9403 17.1662C19.0482 17.4454 18.6887 17.6662 18.4884 17.4437L17.7331 16.6048C17.6583 16.5217 17.5399 16.4934 17.4356 16.5337L16.3825 16.9404C16.1033 17.0483 15.8825 16.6888 16.105 16.4885L16.9439 15.7332C17.027 15.6584 17.0553 15.54 17.015 15.4357L16.6083 14.3826Z" fill="white"/>
</svg>
